<svg xmlns="http://www.w3.org/2000/svg" width="497" height="500" fill="none" xmlns:v="https://vecta.io/nano"><style><![CDATA[.B{fill:#585d69}.C{fill:#afb2bf}.D{fill:#999daa}.E{fill:#f1f2ff}]]></style><g filter="url(#A)"><path transform="matrix(.985177 .171541 -.171541 .985177 110.299 50.3359)" fill="#fff" d="M0 0h341v346H0z"/><path transform="matrix(.985177 .171541 -.171541 .985177 110.299 50.3359)" fill="#ffe395" d="M0 0h341v56H0z"/><path d="M129.241 88.146l1.996-11.464 4.299.749c.881.153 1.591.446 2.131.879a3.33 3.33 0 0 1 1.125 1.591c.21.625.252 1.301.125 2.029-.128.735-.397 1.361-.806 1.878s-.944.887-1.606 1.11-1.434.252-2.318.098l-2.85-.496.298-1.707 2.569.447c.515.09.952.074 1.312-.048a1.72 1.72 0 0 0 .856-.612c.215-.285.358-.632.429-1.038a2.33 2.33 0 0 0-.054-1.117c-.102-.337-.305-.62-.607-.85s-.706-.394-1.225-.484l-1.903-.331-1.694 9.729-2.077-.362zm14.077-9.36l-1.996 11.464-2.026-.353 1.996-11.464 2.026.353zm2.532 12.431c-.545-.095-1.019-.277-1.422-.547s-.691-.624-.878-1.053-.225-.924-.127-1.487c.084-.485.244-.871.478-1.157s.523-.497.866-.634.717-.219 1.122-.249a8.65 8.65 0 0 1 1.253-.007l1.25.074c.321.01.56-.018.718-.083s.259-.199.293-.393l.006-.034c.073-.422.005-.77-.204-1.045s-.55-.453-1.02-.535c-.497-.087-.909-.047-1.238.119s-.564.388-.716.666l-1.845-.598c.24-.496.563-.89.967-1.181s.871-.487 1.398-.576 1.092-.087 1.692.018a5.42 5.42 0 0 1 1.212.361 3.52 3.52 0 0 1 1.041.677 2.45 2.45 0 0 1 .661 1.043c.142.417.164.911.065 1.482l-1.002 5.754-1.948-.339.205-1.181-.067-.012a2.5 2.5 0 0 1-.637.581c-.256.167-.563.285-.921.353s-.754.059-1.202-.019zm.785-1.397c.407.071.774.052 1.1-.056s.594-.289.802-.529.344-.519.399-.836l.176-1.013c-.072.041-.189.071-.35.089a4.65 4.65 0 0 1-.524.03 15.59 15.59 0 0 1-.57-.007l-.487-.016c-.309-.012-.592.008-.847.06s-.466.15-.633.293-.273.341-.319.602c-.065.373.023.679.262.916s.57.393.991.467zm8.726-2.316l-.877 5.038-2.027-.353 1.497-8.598 1.937.337-.254 1.461.1.018c.282-.447.664-.775 1.146-.983s1.05-.255 1.692-.144c.593.103 1.088.32 1.484.651s.68.758.838 1.282c.163.524.182 1.129.059 1.815l-.953 5.475-2.027-.353.899-5.161c.1-.575.029-1.05-.213-1.427s-.618-.61-1.141-.701c-.354-.062-.683-.038-.987.07a1.66 1.66 0 0 0-.76.554c-.203.264-.341.604-.413 1.018zm11.31 10.482a4.16 4.16 0 0 1-.755-.201c-.225-.081-.401-.162-.529-.242l.745-1.497a2.75 2.75 0 0 0 .768.261.98.98 0 0 0 .648-.112c.203-.107.394-.312.574-.615l.254-.434-1.589-9.32 2.149.374.851 6.838.09.016 3.118-6.147 2.155.375-5.121 9.04c-.24.427-.521.78-.842 1.059a2.63 2.63 0 0 1-1.105.581c-.411.109-.881.117-1.411.025zm11.812-1.092c-.839-.146-1.535-.458-2.086-.934s-.939-1.077-1.163-1.8-.253-1.528-.098-2.416.458-1.637.91-2.246 1.024-1.044 1.704-1.307 1.44-.32 2.279-.174 1.535.458 2.087.934.937 1.078 1.156 1.805c.224.727.258 1.535.103 2.423s-.459 1.635-.915 2.24-1.017 1.04-1.697 1.302-1.44.32-2.28.174zm.294-1.621c.456.079.858.021 1.207-.176s.637-.5.861-.9.386-.859.477-1.382.098-1.015.019-1.467-.243-.836-.505-1.143-.62-.5-1.075-.579c-.467-.081-.877-.022-1.231.178s-.639.502-.867.905-.381.862-.472 1.388-.099 1.009-.024 1.461.249.832.511 1.139.633.497 1.099.578zm11.685-.192l.867-4.982 2.027.353-1.497 8.598-1.965-.342.266-1.528-.09-.016a2.62 2.62 0 0 1-1.162 1.014c-.494.229-1.064.288-1.709.175-.564-.098-1.04-.31-1.429-.635s-.657-.755-.816-1.278-.177-1.134-.058-1.821l.953-5.474 2.027.353-.899 5.161c-.095.545-.021 1.004.222 1.377s.606.602 1.091.686c.299.052.601.029.906-.067s.573-.273.802-.529.388-.607.464-1.044zm3.48 4.332l1.498-8.598 1.964.342-.249 1.433.089.016c.243-.469.579-.805 1.006-1.007s.894-.265 1.387-.179l.372.082c.14.032.256.066.346.101l-.325 1.864c-.08-.045-.212-.095-.395-.15-.178-.058-.353-.102-.525-.132a2.08 2.08 0 0 0-1.038.067c-.318.106-.586.284-.803.535a1.88 1.88 0 0 0-.42.924l-.88 5.055-2.027-.353zm14.183-9.342l-1.997 11.464-2.026-.353 1.996-11.464 2.027.353zm3.864 12.657c-.862-.15-1.575-.459-2.14-.926s-.95-1.065-1.171-1.784-.252-1.534-.096-2.433c.154-.884.458-1.631.91-2.241s1.021-1.052 1.694-1.32 1.422-.335 2.243-.192c.53.092 1.015.265 1.455.519.445.25.817.584 1.117 1.002s.513.92.627 1.505.105 1.249-.026 2.002l-.108.621-7.048-1.227.238-1.366 5.105.889c.064-.389.04-.748-.071-1.079s-.299-.615-.563-.842-.585-.373-.973-.44c-.414-.072-.796-.035-1.144.112s-.638.362-.87.656-.377.628-.447 1.012l-.208 1.192c-.087.5-.07.945.05 1.335s.329.703.625.951.664.404 1.104.481c.295.051.569.056.822.016s.483-.133.687-.267a1.59 1.59 0 0 0 .503-.541l1.855.542a2.99 2.99 0 0 1-.911 1.191c-.396.312-.872.525-1.426.64s-1.165.108-1.833-.008zm13.464-4.346l-1.883-.12c-.019-.196-.08-.387-.182-.574a1.39 1.39 0 0 0-.446-.487c-.199-.138-.455-.235-.769-.289-.421-.073-.792-.044-1.111.089s-.496.346-.543.638a.75.75 0 0 0 .168.658c.163.19.454.373.873.55l1.412.569c.783.317 1.339.701 1.668 1.15s.448.984.344 1.6c-.098.54-.339.99-.725 1.35-.381.357-.868.603-1.461.738s-1.247.14-1.963.015c-1.053-.183-1.861-.551-2.426-1.103s-.84-1.24-.825-2.052l2.009.154c.022.403.161.729.418.978s.618.413 1.084.494c.482.084.885.052 1.211-.095s.519-.365.57-.656c.042-.246-.017-.466-.18-.66-.158-.193-.428-.367-.809-.521l-1.413-.563c-.794-.316-1.354-.711-1.679-1.187s-.43-1.032-.317-1.659c.089-.531.312-.965.671-1.302s.824-.572 1.384-.693 1.189-.127 1.876-.008c1.007.175 1.763.528 2.267 1.058a2.75 2.75 0 0 1 .777 1.929zm8.651 1.506l-1.882-.12a1.51 1.51 0 0 0-.183-.574 1.38 1.38 0 0 0-.446-.487c-.199-.138-.455-.235-.768-.29-.422-.073-.793-.044-1.112.089s-.496.346-.543.638a.75.75 0 0 0 .168.658c.163.19.454.373.873.55l1.412.569c.783.317 1.339.7 1.668 1.149s.448.984.345 1.6c-.098.541-.34.991-.726 1.35s-.868.603-1.46.738-1.248.14-1.964.016c-1.052-.184-1.861-.551-2.426-1.103a2.69 2.69 0 0 1-.825-2.053l2.009.154c.022.404.161.73.418.978s.618.413 1.084.495c.482.083.885.052 1.211-.095s.519-.366.57-.657a.77.77 0 0 0-.18-.659c-.158-.193-.428-.367-.808-.522l-1.413-.563c-.795-.315-1.355-.711-1.68-1.186-.324-.48-.429-1.033-.317-1.659.089-.53.313-.965.671-1.302s.824-.572 1.384-.693 1.189-.127 1.876-.008c1.007.175 1.763.528 2.267 1.058a2.75 2.75 0 0 1 .777 1.929zm4.475 7.469c-.839-.146-1.535-.458-2.086-.934s-.939-1.077-1.163-1.8-.253-1.528-.099-2.417.458-1.637.911-2.246 1.023-1.044 1.703-1.307 1.44-.32 2.28-.174 1.535.458 2.087.934a3.78 3.78 0 0 1 1.156 1.804c.223.727.258 1.535.103 2.423s-.46 1.635-.915 2.24-1.017 1.04-1.697 1.302-1.44.32-2.28.174zm.294-1.621c.455.079.858.02 1.207-.176.35-.201.637-.501.861-.9a4.25 4.25 0 0 0 .477-1.382c.091-.526.098-1.015.019-1.468s-.243-.836-.505-1.143-.62-.5-1.076-.579c-.466-.081-.876-.022-1.23.178s-.639.502-.867.904a4.35 4.35 0 0 0-.472 1.389c-.091.522-.099 1.009-.024 1.46s.249.832.511 1.139.633.497 1.099.578zm8.479-2.215l-.878 5.038-2.026-.353 1.497-8.598 1.937.337-.254 1.461.1.018c.282-.447.664-.775 1.146-.983s1.05-.255 1.692-.144c.593.104 1.088.32 1.484.651a2.6 2.6 0 0 1 .838 1.282c.163.524.182 1.129.059 1.815l-.953 5.475-2.027-.353.899-5.161c.1-.575.029-1.05-.213-1.427s-.619-.609-1.141-.7c-.354-.062-.683-.039-.987.07a1.66 1.66 0 0 0-.76.554c-.203.264-.341.604-.413 1.018zm14.598 1.215l-1.882-.12c-.02-.195-.08-.387-.182-.574s-.247-.348-.446-.487-.455-.235-.769-.289c-.421-.074-.792-.044-1.111.089s-.497.346-.544.638c-.047.249.009.468.168.658s.454.373.873.55l1.412.568c.783.317 1.34.701 1.669 1.15s.448.984.344 1.6c-.098.54-.34.991-.725 1.35s-.868.603-1.461.738-1.247.14-1.963.015c-1.053-.183-1.862-.55-2.427-1.103s-.839-1.24-.825-2.052l2.009.154c.022.403.162.729.418.978s.619.413 1.085.494c.481.084.885.053 1.21-.095s.52-.365.57-.656c.043-.246-.017-.466-.179-.66s-.428-.366-.809-.521l-1.413-.563c-.795-.316-1.354-.711-1.679-1.187s-.43-1.032-.317-1.658c.089-.531.312-.965.671-1.302s.824-.572 1.384-.694 1.189-.127 1.875-.007c1.008.175 1.764.528 2.267 1.057s.767 1.174.777 1.929z" fill="#41260b"/><g clip-path="url(#B)" class="C"><path d="M128.216 156.994a1 1 0 0 1-.411.646l-5.916 4.162a1.66 1.66 0 0 0-.683 1.077c-.038.216-.032.437.015.65a1.67 1.67 0 0 0 .264.595l4.156 5.908c.147.217.203.484.156.742a1 1 0 0 1-.409.637c-.214.151-.479.212-.738.169a1 1 0 0 1-.645-.397l-4.157-5.905a3.67 3.67 0 0 1-.611-2.738c.166-.958.706-1.811 1.501-2.371l5.917-4.165a1.01 1.01 0 0 1 .551-.182c.198-.004.393.05.56.156a1 1 0 0 1 .45 1.016z"/></g><path d="M195.751 182.961l-4.175-.727 2.245-12.897 4.308.75c1.263.22 2.304.667 3.121 1.341s1.384 1.528 1.699 2.573.364 2.233.131 3.572-.681 2.455-1.34 3.336-1.49 1.501-2.504 1.86-2.175.42-3.485.192zm-1.933-2.089l2.122.37c.982.171 1.831.128 2.546-.128s1.297-.715 1.743-1.364.759-1.49.936-2.51c.177-1.012.164-1.898-.036-2.66s-.58-1.379-1.15-1.855-1.326-.795-2.266-.959l-2.242-.39-1.653 9.496zm14.539 4.485c-.953-.166-1.738-.513-2.356-1.04-.612-.53-1.041-1.2-1.285-2.008s-.272-1.719-.097-2.722c.172-.991.509-1.832 1.01-2.524s1.129-1.189 1.87-1.497c.746-.307 1.568-.383 2.466-.226.546.095 1.059.277 1.54.547s.891.633 1.231 1.09.574 1.015.701 1.673.116 1.42-.036 2.297l-.117.668-7.689-1.339.246-1.411 5.844 1.018c.086-.496.062-.952-.073-1.369a2.32 2.32 0 0 0-.691-1.061c-.323-.286-.727-.471-1.214-.555-.529-.093-1.014-.043-1.454.149-.435.188-.795.471-1.082.849a2.96 2.96 0 0 0-.548 1.287l-.192 1.102c-.113.646-.095 1.216.053 1.709s.412.896.782 1.207.831.508 1.381.604a3.03 3.03 0 0 0 1.002.018 2.12 2.12 0 0 0 .843-.333c.25-.168.458-.394.624-.676l1.726.631a3.27 3.27 0 0 1-1.008 1.245c-.433.327-.946.552-1.538.673-.587.119-1.234.117-1.939-.006zm10.314 1.796c-.937-.163-1.706-.516-2.308-1.058s-1.011-1.224-1.241-2.039-.261-1.706-.092-2.676c.171-.982.507-1.817 1.007-2.504.501-.692 1.124-1.191 1.87-1.498s1.574-.381 2.485-.223c.734.128 1.366.379 1.893.752s.927.827 1.195 1.376.385 1.155.338 1.817l-1.832-.319a2.23 2.23 0 0 0-.489-1.292c-.3-.39-.75-.637-1.35-.741-.525-.092-1.009-.033-1.452.175-.437.205-.81.543-1.117 1.013s-.519 1.043-.638 1.731c-.123.705-.122 1.333.003 1.882s.358.999.699 1.348.785.572 1.319.665a2.37 2.37 0 0 0 1.003-.027 2 2 0 0 0 .837-.445c.245-.212.437-.486.578-.82l1.832.319c-.176.614-.477 1.136-.902 1.568s-.949.739-1.569.921-1.305.208-2.069.075zm10.155 1.768c-.952-.166-1.738-.513-2.355-1.04a4.2 4.2 0 0 1-1.286-2.008c-.239-.811-.271-1.719-.097-2.722.173-.991.51-1.832 1.011-2.523s1.128-1.19 1.869-1.498c.746-.307 1.568-.382 2.466-.226.546.095 1.059.277 1.54.547s.891.633 1.231 1.09.574 1.015.702 1.673.116 1.42-.037 2.297l-.116.668-7.689-1.339.245-1.411 5.844 1.018c.087-.496.062-.952-.073-1.369s-.364-.775-.691-1.061c-.322-.285-.727-.471-1.214-.555-.529-.092-1.013-.043-1.453.149a2.65 2.65 0 0 0-1.082.85 2.94 2.94 0 0 0-.549 1.286l-.192 1.102c-.112.647-.095 1.216.053 1.709s.413.896.783 1.207.83.508 1.38.604c.357.062.691.068 1.003.019s.593-.165.843-.334.458-.394.624-.676l1.726.631c-.234.5-.57.915-1.009 1.246-.433.326-.946.551-1.538.673-.587.118-1.233.116-1.939-.007zm6.274.891l1.684-9.673 1.807.315-.274 1.574.12.021c.294-.498.696-.856 1.205-1.074s1.085-.279 1.723-.168c.646.113 1.162.358 1.546.737a2.7 2.7 0 0 1 .759 1.416l.1.018a2.76 2.76 0 0 1 1.317-1.042c.558-.223 1.186-.274 1.883-.153.877.153 1.545.553 2.003 1.199s.598 1.525.405 2.633l-1.13 6.487-1.883-.328 1.099-6.31c.114-.655.018-1.161-.287-1.517s-.707-.577-1.202-.663c-.613-.107-1.122-.001-1.528.318-.405.314-.659.765-.761 1.353l-1.074 6.165-1.876-.327 1.119-6.429c.092-.525.001-.975-.271-1.351s-.67-.61-1.195-.702a1.85 1.85 0 0 0-1.038.112c-.33.132-.616.349-.859.648-.238.3-.395.669-.471 1.105l-1.039 5.964-1.882-.328zm15.823 2.755l2.246-12.897 1.883.328-.835 4.793.114.019c.144-.182.342-.388.594-.617s.577-.409.977-.543.9-.155 1.501-.05c.78.136 1.443.454 1.987.956s.926 1.154 1.145 1.957.244 1.73.062 2.775-.512 1.912-.991 2.598-1.056 1.172-1.735 1.469-1.408.372-2.189.236c-.587-.103-1.051-.285-1.39-.547s-.585-.543-.749-.844-.284-.565-.362-.79l-.157-.028-.262 1.505-1.839-.32zm2.687-4.515c-.118.68-.123 1.294-.015 1.84s.324.997.647 1.352.757.573 1.298.667c.563.098 1.059.031 1.489-.201s.787-.596 1.07-1.079.487-1.046.6-1.693c.111-.638.114-1.228.009-1.769s-.316-.992-.647-1.352c-.326-.36-.773-.589-1.34-.688-.546-.095-1.032-.035-1.459.181s-.774.559-1.055 1.029-.48 1.042-.597 1.713zm12.397 7.343c-.953-.166-1.738-.513-2.356-1.04-.612-.53-1.041-1.2-1.285-2.008-.239-.811-.272-1.719-.097-2.722.173-.991.509-1.832 1.01-2.523.506-.691 1.129-1.19 1.87-1.498s1.568-.382 2.466-.226c.546.095 1.059.277 1.54.547s.891.633 1.231 1.09.574 1.015.701 1.673.117 1.42-.036 2.297l-.116.668-7.689-1.339.245-1.411 5.844 1.018c.086-.496.062-.952-.073-1.369a2.32 2.32 0 0 0-.691-1.061c-.322-.285-.727-.47-1.214-.555-.529-.092-1.013-.043-1.453.149a2.66 2.66 0 0 0-1.083.85 2.95 2.95 0 0 0-.548 1.286l-.192 1.102c-.113.647-.095 1.216.053 1.709a2.5 2.5 0 0 0 .782 1.207c.371.307.831.508 1.381.604.357.062.691.068 1.002.019s.594-.165.844-.334.457-.394.623-.676l1.727.631c-.234.5-.571.915-1.009 1.246-.433.326-.946.551-1.538.673s-1.233.116-1.939-.007zm6.273.891l1.685-9.673 1.819.317-.267 1.537.101.017c.267-.489.649-.845 1.146-1.065s1.036-.287 1.602-.188l.414.085.378.098-.313 1.801c-.072-.034-.202-.081-.391-.139s-.379-.112-.572-.145c-.445-.078-.858-.053-1.239.076a2.13 2.13 0 0 0-.954.632c-.258.292-.424.648-.497 1.068l-1.029 5.907-1.883-.328zm11.474 1.998l.246-1.411 5.151-3.761 1.377-1.091c.372-.32.662-.635.872-.944s.347-.654.413-1.031c.075-.429.038-.816-.109-1.161s-.38-.64-.699-.868-.696-.387-1.133-.463c-.462-.081-.881-.057-1.258.072s-.688.35-.933.662-.407.699-.488 1.161l-1.857-.324c.136-.785.436-1.44.9-1.965s1.038-.894 1.724-1.107 1.431-.257 2.233-.118c.81.142 1.496.427 2.057.858s.974.948 1.226 1.563.319 1.263.198 1.955c-.083.479-.255.931-.515 1.357s-.653.884-1.192 1.37c-.538.481-1.269 1.052-2.193 1.713l-3.03 2.237-.017.094 5.806 1.011-.29 1.669-8.489-1.478zm15.328 2.889c-.994-.177-1.799-.587-2.413-1.231s-1.022-1.495-1.223-2.555-.178-2.291.066-3.693.638-2.56 1.184-3.486 1.224-1.586 2.02-1.984 1.693-.51 2.68-.338 1.787.582 2.4 1.229 1.023 1.493 1.224 2.549c.206 1.052.188 2.278-.056 3.676-.245 1.406-.641 2.574-1.188 3.504s-1.217 1.59-2.014 1.992c-.796.397-1.689.51-2.68.337zm.293-1.681c.873.152 1.63-.155 2.269-.922s1.106-1.955 1.387-3.567c.186-1.071.23-1.995.132-2.773s-.316-1.401-.669-1.856a2.14 2.14 0 0 0-1.386-.838c-.869-.151-1.625.158-2.27.928s-1.109 1.959-1.393 3.566c-.187 1.075-.234 2.003-.141 2.785.098.779.322 1.395.671 1.849a2.18 2.18 0 0 0 1.4.828zm6.701 2.679l.246-1.411 5.151-3.761 1.377-1.091c.372-.32.663-.635.872-.944s.348-.654.413-1.032c.075-.428.038-.815-.109-1.161a2.01 2.01 0 0 0-.699-.867c-.318-.233-.696-.388-1.132-.464-.462-.08-.882-.056-1.259.073s-.688.35-.933.662-.407.699-.487 1.161l-1.858-.324c.137-.785.437-1.44.9-1.965a3.73 3.73 0 0 1 1.724-1.107c.687-.218 1.431-.257 2.233-.118.81.141 1.496.427 2.057.858a3.69 3.69 0 0 1 1.226 1.563c.253.611.319 1.262.199 1.955-.084.479-.256.931-.516 1.357s-.653.884-1.192 1.369-1.269 1.053-2.193 1.714l-3.03 2.237-.016.094 5.806 1.011-.291 1.669-8.489-1.478zm10.876 1.893l.245-1.41 5.152-3.762 1.377-1.09c.371-.32.662-.635.872-.945s.347-.653.413-1.031c.074-.428.038-.815-.11-1.161s-.379-.639-.698-.868-.696-.387-1.133-.463c-.462-.08-.881-.056-1.258.073a1.96 1.96 0 0 0-.933.662c-.245.312-.407.699-.488 1.16l-1.857-.323c.136-.785.436-1.44.9-1.965s1.038-.894 1.724-1.108 1.431-.257 2.233-.117c.81.141 1.495.427 2.056.858s.975.948 1.227 1.563.319 1.262.198 1.955a3.85 3.85 0 0 1-.515 1.357c-.256.427-.654.883-1.192 1.369s-1.269 1.053-2.193 1.714l-3.031 2.236-.016.095 5.806 1.011-.29 1.668-8.489-1.478z" fill="#424854"/><g clip-path="url(#C)" class="C"><path d="M390.931 216.945c.046-.261.193-.493.41-.646l5.916-4.161c.179-.126.332-.286.449-.471a1.68 1.68 0 0 0 .235-.607c.037-.215.032-.436-.016-.65a1.68 1.68 0 0 0-.263-.595l-4.156-5.911a1 1 0 0 1 .253-1.379c.214-.151.479-.212.738-.169a1 1 0 0 1 .645.397l4.156 5.908a3.67 3.67 0 0 1-.89 5.109l-5.916 4.162c-.161.113-.353.177-.55.182a1 1 0 0 1-.56-.155c-.167-.105-.299-.258-.379-.438a1.01 1.01 0 0 1-.072-.576z"/></g><path d="M126.31 194.492l1.574.274 1.574 7.161.101.017 3.901-6.207 1.574.274-1.497 8.598-1.234-.215 1.083-6.221-.08-.014-3.617 5.767-1.024-.178-1.454-6.655-.08-.014-1.084 6.226-1.234-.215 1.497-8.598z" class="C"/><path d="M168.383 202.969l.194-1.117 6.654 1.159-.194 1.117-2.683-.467-1.302 7.481-1.293-.225 1.302-7.482-2.678-.466z" class="C"/><path d="M208.496 217.661l-.887-9.013 1.364.238.516 6.95.08.014 2.902-6.355 1.351.235.582 6.966.08.014 2.831-6.372 1.369.238-3.886 8.182-1.306-.227-.688-6.755-.067-.012-2.931 6.125-1.31-.228z" class="C"/><path d="M250.856 217.329l.195-1.116 6.654 1.158-.195 1.117-2.682-.467-1.303 7.481-1.293-.225 1.303-7.481-2.679-.467z" class="C"/><path d="M291.601 232.131l1.497-8.597 5.332.928-.194 1.117-4.035-.703-.456 2.62 3.652.636-.193 1.112-3.653-.636-.653 3.749-1.297-.226z" class="C"/><path d="M338.29 233.73a1.24 1.24 0 0 0-.393-1.02c-.286-.278-.676-.459-1.168-.545-.353-.062-.668-.059-.945.008s-.502.181-.679.349-.281.371-.323.615a.96.96 0 0 0 .051.553 1.28 1.28 0 0 0 .317.44 2.81 2.81 0 0 0 .469.337l.497.251.801.365c.263.115.528.255.797.42s.509.362.722.593a2.2 2.2 0 0 1 .475.8c.106.304.125.649.058 1.036a2.32 2.32 0 0 1-.604 1.231c-.315.334-.729.569-1.243.705s-1.102.145-1.774.028c-.644-.112-1.183-.311-1.617-.597s-.753-.64-.953-1.061-.269-.898-.207-1.421l1.301.227c-.029.315.027.592.167.829s.345.428.605.577.561.249.894.307c.366.064.702.063 1.008-.002a1.66 1.66 0 0 0 .765-.368c.202-.181.327-.412.375-.692.045-.254.008-.476-.109-.663s-.286-.356-.513-.505-.485-.29-.778-.425l-.968-.454c-.656-.308-1.154-.678-1.493-1.112s-.454-.95-.349-1.549c.086-.495.296-.904.629-1.227s.746-.546 1.241-.671 1.031-.14 1.607-.04c.583.101 1.078.293 1.488.575s.716.625.911 1.028.259.832.189 1.296l-1.251-.218z" class="C"/><path d="M379.527 240.91c.025-.405-.107-.745-.393-1.02s-.676-.46-1.168-.545c-.353-.062-.668-.059-.945.008a1.43 1.43 0 0 0-.679.349c-.173.166-.281.371-.323.614-.036.205-.019.389.05.554a1.32 1.32 0 0 0 .317.44c.143.126.299.238.469.337l.497.251.802.364a6.45 6.45 0 0 1 .796.42c.269.165.51.363.723.593a2.21 2.21 0 0 1 .475.801c.106.304.125.649.058 1.035a2.32 2.32 0 0 1-.604 1.232c-.315.334-.729.569-1.243.705s-1.102.145-1.774.028c-.644-.112-1.183-.311-1.618-.597s-.752-.64-.952-1.062-.269-.897-.207-1.42l1.301.227a1.35 1.35 0 0 0 .167.829c.144.236.345.428.605.577s.561.249.894.307c.366.064.702.063 1.008-.002s.563-.19.765-.369.327-.411.375-.691c.045-.255.008-.476-.109-.664s-.286-.355-.513-.504-.485-.291-.779-.426l-.967-.454c-.656-.307-1.154-.678-1.494-1.112s-.453-.949-.348-1.548c.086-.496.295-.905.628-1.227a2.68 2.68 0 0 1 1.242-.671c.495-.127 1.031-.141 1.607-.04.582.101 1.078.293 1.488.575s.716.624.911 1.028.258.832.189 1.296l-1.251-.218z" class="C"/><path d="M123.22 230.746a.74.74 0 0 1-.136.318c-.069.085-.198.111-.387.078l-5.092-.886c-.115-.02-.209-.075-.28-.163a.43.43 0 0 1-.079-.29c.007-.107.05-.197.128-.27l1.151-1.017 1.356-1.161 1.315-1.119 1.085-.915.614-.543a8.93 8.93 0 0 0 .748-.747c.242-.272.452-.544.629-.816s.287-.529.329-.771a.77.77 0 0 0-.273-.762c-.236-.204-.553-.34-.952-.41-.442-.076-.924-.074-1.447.008-.513.084-.95.236-1.313.454-.264.149-.47.21-.617.185-.145-.036-.247-.103-.306-.2-.068-.109-.096-.228-.085-.355.022-.127.149-.262.379-.405a4.78 4.78 0 0 1 1.035-.437 5.66 5.66 0 0 1 1.227-.241c.43-.045.84-.033 1.228.035.463.08.857.241 1.183.482a2 2 0 0 1 .712.855 1.69 1.69 0 0 1 .143 1.048c-.068.388-.266.809-.594 1.26-.315.444-.755.919-1.32 1.427l-.918.798-1.408 1.184-1.559 1.304-1.379 1.206-.034-.461 4.493.782c.189.033.312.103.369.211s.076.219.055.334zm4.732.451c.546.095 1.01.013 1.391-.246.391-.256.645-.721.762-1.393.049-.284.001-.596-.146-.935a6.42 6.42 0 0 0-.55-1.038l-.604-.917-.234-.333-.406-.558-.487-.751a4.14 4.14 0 0 1-.37-.86 1.88 1.88 0 0 1-.059-.871c.093-.536.31-.942.651-1.219.342-.286.741-.466 1.198-.538.458-.083.913-.085 1.365-.006a4.43 4.43 0 0 1 1.199.388c.381.174.673.425.876.753.215.319.277.741.186 1.267-.066.378-.284.724-.652 1.039-.357.306-.797.598-1.322.874l-1.584.796c-.533.265-.978.518-1.334.759-.354.23-.631.485-.831.765-.188.27-.317.605-.387 1.004-.104.599-.023 1.068.243 1.407.268.328.633.532 1.095.613zm-.196.843c-.357-.063-.683-.179-.978-.35a2.62 2.62 0 0 1-.714-.66 2.32 2.32 0 0 1-.398-.881c-.071-.337-.075-.69-.011-1.058.082-.473.23-.885.443-1.238.223-.351.54-.675.949-.972.421-.305.975-.626 1.661-.961l1.423-.71c.451-.225.826-.452 1.126-.681.312-.238.492-.494.539-.767.059-.336.022-.592-.11-.766s-.326-.306-.581-.394a5.45 5.45 0 0 0-.84-.211 3.12 3.12 0 0 0-.873-.022 1.66 1.66 0 0 0-.781.286c-.222.156-.363.402-.421.739-.049.283-.013.571.109.863a4.89 4.89 0 0 0 .442.824l.455.648.472.65c.298.399.559.796.783 1.192s.39.778.499 1.143c.122.357.156.693.101 1.008-.099.568-.306 1.041-.621 1.419s-.702.646-1.163.804-.964.19-1.511.095z" class="D"/><path d="M164.688 237.967c-.02.116-.066.221-.137.317-.069.086-.198.112-.387.079l-5.091-.886c-.116-.021-.209-.075-.281-.163-.06-.086-.087-.183-.079-.29a.4.4 0 0 1 .128-.27l1.152-1.017 1.355-1.161 1.316-1.119 1.085-.915.614-.543c.256-.226.505-.475.747-.747s.452-.544.629-.816.287-.529.33-.771a.77.77 0 0 0-.274-.762c-.235-.204-.552-.34-.952-.41-.441-.077-.923-.074-1.446.008-.513.084-.951.235-1.314.454-.264.149-.469.21-.617.185-.145-.037-.247-.103-.306-.2a.56.56 0 0 1-.084-.356c.022-.126.148-.261.379-.405a4.82 4.82 0 0 1 1.034-.437 5.78 5.78 0 0 1 1.228-.241c.43-.044.839-.032 1.228.036.462.08.857.241 1.183.482.328.23.565.515.712.854.159.331.206.681.142 1.048-.068.389-.265.81-.593 1.261-.315.443-.756.919-1.32 1.427l-.919.798-1.408 1.184-1.559 1.304-1.379 1.205-.033-.46 4.492.782c.189.033.312.103.369.211a.5.5 0 0 1 .056.334zm6.194 1.566c-.126-.022-.235-.084-.325-.187-.078-.111-.094-.238-.047-.381l2.72-9.563c.045-.133.12-.223.226-.27a.49.49 0 0 1 .628.126c.08.1.095.233.044.397l-2.721 9.563c-.034.135-.104.226-.209.272a.54.54 0 0 1-.316.043zm-.913-4.365c-.41-.072-.74-.227-.991-.465a2.38 2.38 0 0 1-.559-.893c-.111-.356-.164-.738-.157-1.149.008-.42.069-.832.182-1.235.198-.701.47-1.266.815-1.693.355-.425.753-.719 1.192-.88s.891-.203 1.353-.122a2.86 2.86 0 0 1 .979.349c.285.169.495.357.632.565l-.245.85c-.052-.139-.153-.27-.305-.394a1.75 1.75 0 0 0-.532-.304c-.211-.09-.443-.158-.695-.202-.452-.079-.892.051-1.318.388-.415.328-.734.884-.957 1.668-.111.392-.169.783-.171 1.172.007.392.085.724.232.999.149.264.386.425.712.481.252.044.5-.01.743-.163.255-.161.493-.379.715-.655a7.86 7.86 0 0 0 .614-.916c.186-.325.343-.633.47-.925l.276-.748.11.019-.86 2.985a4.29 4.29 0 0 1-.661.713c-.241.207-.496.363-.763.468a1.49 1.49 0 0 1-.811.087z" class="D"/><path d="M199.027 243.101c.093-.103.203-.143.329-.121s.25.092.37.21c.184.184.431.352.741.503a4.3 4.3 0 0 0 1.018.307c.883.154 1.628.1 2.237-.162.611-.273 1.002-.719 1.175-1.339.139-.485.142-.906.009-1.265a1.86 1.86 0 0 0-.656-.894c-.314-.249-.696-.451-1.145-.605-.448-.165-.924-.291-1.429-.379-.105-.018-.188-.07-.248-.157a.46.46 0 0 1-.045-.3c.02-.116.068-.205.144-.267.088-.072.184-.098.289-.08a8.33 8.33 0 0 0 1.749.126c.566-.02 1.058-.14 1.475-.36.419-.23.706-.603.861-1.117.111-.392.098-.719-.04-.982s-.357-.468-.656-.617a3.19 3.19 0 0 0-.997-.336 3.91 3.91 0 0 0-1.165-.024c-.397.039-.71.093-.938.161-.148.039-.29.047-.426.023-.135-.034-.225-.109-.27-.225a.34.34 0 0 1 .024-.321.56.56 0 0 1 .288-.258c.247-.109.624-.195 1.133-.258s1.021-.049 1.536.04c.484.084.941.256 1.372.515s.757.598.977 1.015c.221.407.251.888.089 1.445a2.55 2.55 0 0 1-.594 1.082c-.267.289-.614.51-1.042.663-.425.142-.939.204-1.542.186l.056-.136c.591.211 1.068.489 1.43.833a2.45 2.45 0 0 1 .733 1.2c.118.443.105.922-.039 1.438-.25.877-.773 1.517-1.569 1.92-.793.392-1.753.49-2.877.295-.494-.086-.946-.225-1.357-.415s-.719-.407-.926-.649a.81.81 0 0 1-.195-.375c-.011-.121.029-.228.121-.32zm11.274 3.311c-.788-.137-1.392-.464-1.811-.981-.406-.525-.647-1.163-.723-1.912-.062-.758.021-1.55.252-2.376s.497-1.581.8-2.265.659-1.265 1.068-1.746c.419-.48.89-.825 1.414-1.037.537-.221 1.147-.271 1.83-.153.704.123 1.243.385 1.617.786a3.1 3.1 0 0 1 .758 1.431c.132.543.174 1.113.124 1.71a8.43 8.43 0 0 1-.283 1.624c-.307 1.083-.704 2.021-1.188 2.814-.483.782-1.05 1.365-1.701 1.75-.64.376-1.359.494-2.157.355zm.164-.848c.494.086.941.034 1.342-.156.403-.201.764-.501 1.083-.9a6.35 6.35 0 0 0 .857-1.377 11.36 11.36 0 0 0 .609-1.632c.134-.464.235-.95.302-1.458s.064-.99-.008-1.447c-.061-.454-.227-.84-.496-1.158-.258-.326-.649-.535-1.174-.627-.505-.087-.95-.046-1.338.125a2.77 2.77 0 0 0-1.023.747 5.46 5.46 0 0 0-.753 1.152c-.204.43-.385.875-.541 1.335l-.398 1.263c-.326 1.188-.336 2.145-.029 2.869.309.715.831 1.136 1.567 1.264z" class="D"/><path d="M247.451 252.865a.49.49 0 0 1-.309-.184c-.078-.111-.097-.249-.057-.416l2.72-9.465c.05-.165.129-.276.236-.333a.6.6 0 0 1 .366-.05.47.47 0 0 1 .293.181c.082.09.099.212.05.366l-2.736 9.561c-.049.154-.126.254-.231.3s-.216.06-.332.04z" class="D"/><path d="M291.723 260.086c-.02.116-.066.221-.136.317-.069.086-.198.112-.388.079l-5.091-.886a.45.45 0 0 1-.28-.163.43.43 0 0 1-.08-.29.4.4 0 0 1 .128-.27l1.152-1.017 1.355-1.161 1.316-1.119 1.085-.915.614-.543c.256-.226.505-.475.747-.747s.452-.544.63-.816.287-.529.329-.771a.77.77 0 0 0-.274-.762c-.235-.204-.552-.34-.952-.41-.441-.077-.923-.074-1.446.008-.513.084-.951.235-1.314.454-.264.149-.469.21-.616.185-.146-.037-.248-.103-.307-.2a.57.57 0 0 1-.084-.356c.022-.126.148-.261.379-.405a4.82 4.82 0 0 1 1.034-.437 5.78 5.78 0 0 1 1.228-.241c.43-.044.839-.032 1.228.036.462.08.857.241 1.183.482.328.23.565.515.712.854.159.331.206.681.142 1.048-.067.389-.265.809-.593 1.261-.315.443-.755.919-1.32 1.427l-.919.798-1.408 1.184-1.558 1.304-1.38 1.205-.033-.46 4.492.782c.189.033.313.103.37.211s.075.218.055.334z" class="C"/><path d="M327.108 265.403c.094-.102.204-.143.33-.121a.71.71 0 0 1 .37.211c.184.183.431.351.74.502a4.31 4.31 0 0 0 1.019.307c.882.154 1.628.1 2.237-.162a2 2 0 0 0 1.175-1.339c.138-.484.141-.906.009-1.265a1.86 1.86 0 0 0-.656-.894c-.314-.249-.696-.451-1.146-.605a8.16 8.16 0 0 0-1.428-.379c-.105-.018-.188-.07-.249-.157a.47.47 0 0 1-.045-.3c.02-.115.068-.204.144-.267.088-.071.185-.098.29-.079a8.39 8.39 0 0 0 1.748.125c.567-.02 1.059-.14 1.476-.36.419-.23.706-.602.86-1.117.112-.392.099-.719-.04-.981a1.44 1.44 0 0 0-.656-.618c-.286-.158-.618-.27-.997-.336a3.91 3.91 0 0 0-1.165-.024c-.396.039-.709.093-.937.161a.99.99 0 0 1-.427.024c-.134-.035-.224-.11-.269-.226-.047-.106-.039-.212.023-.321a.56.56 0 0 1 .289-.258c.246-.109.624-.195 1.133-.258s1.021-.049 1.536.041c.483.084.941.255 1.372.515s.757.597.976 1.014c.222.407.252.888.09 1.445a2.54 2.54 0 0 1-.595 1.082c-.267.289-.614.51-1.041.663-.425.143-.94.205-1.543.186l.057-.136c.591.211 1.067.489 1.43.834.373.346.617.746.733 1.199.118.443.105.922-.04 1.439-.25.876-.772 1.516-1.568 1.919-.794.392-1.753.491-2.877.295-.494-.086-.946-.224-1.357-.415s-.72-.407-.927-.649c-.107-.127-.172-.252-.194-.375-.012-.121.029-.227.12-.32z" class="D"/><path d="M371.505 274.465c-.115-.02-.212-.086-.29-.197-.077-.121-.088-.275-.034-.46l1.768-6.14c.048-.154.124-.249.228-.285.116-.045.237-.056.363-.034.147.025.248.097.304.215.057.107.06.243.01.408l-1.759 6.092c-.044.188-.124.309-.242.364-.116.045-.232.057-.348.037zm-1.961-4.126c-.105-.018-.193-.076-.262-.175-.057-.107-.071-.213-.042-.316l1.721-5.969c.052-.175.136-.285.252-.33a.62.62 0 0 1 .332-.04c.116.021.213.086.291.197.08.101.094.233.044.398l-1.719 6.051-.409-.64 5.107.889c.148.026.261.089.341.189a.34.34 0 0 1 .108.312c-.018.105-.072.198-.162.28-.088.071-.206.094-.353.068l-5.249-.914z" class="D"/><path d="M118.339 258.821a3.31 3.31 0 0 1-1.083-.4c-.344-.2-.604-.419-.779-.655-.148-.21-.21-.383-.186-.52.022-.126.087-.223.197-.29.111-.078.224-.107.34-.087a.26.26 0 0 1 .175.112c.054.063.097.125.13.185.151.188.375.363.672.523.308.162.619.27.935.325.525.091 1.014.052 1.466-.118s.831-.457 1.139-.858c.319-.399.53-.893.632-1.481.104-.599-.019-1.103-.37-1.51-.339-.417-.856-.685-1.549-.806a3.85 3.85 0 0 0-.755-.05l-1.084.071c-.144.018-.266-.03-.365-.145-.086-.123-.113-.252-.078-.387l1.227-4.252c.09-.331.319-.464.687-.4l4.114.716c.189.033.312.103.37.21a.42.42 0 0 1 .074.322.43.43 0 0 1-.16.264c-.088.072-.227.091-.416.058l-4.398-.766.713-.46-1.289 4.42-.434-.4.843-.081c.231-.025.444-.031.636-.019a3.53 3.53 0 0 1 .592.054c.946.165 1.652.521 2.12 1.068s.631 1.225.49 2.034c-.148.851-.432 1.549-.851 2.093a3.27 3.27 0 0 1-1.595 1.135c-.631.204-1.351.236-2.16.095z" class="D"/><path d="M160.252 266.119c-.452-.078-.856-.278-1.211-.6a2.88 2.88 0 0 1-.765-1.205c-.163-.494-.196-1.02-.099-1.577.279-1.597.675-2.941 1.19-4.031.527-1.1 1.144-1.907 1.851-2.423.708-.526 1.473-.718 2.292-.575.389.068.744.205 1.065.413s.574.468.757.781c.061.087.098.185.111.296.015.1-.041.204-.168.312-.125.097-.254.123-.387.078s-.234-.116-.303-.215c-.127-.206-.312-.385-.557-.535s-.524-.254-.839-.309c-.587-.113-1.144.072-1.672.554-.526.471-1 1.201-1.421 2.188-.408.979-.736 2.178-.983 3.597-.106.609-.026 1.143.241 1.601.277.46.673.734 1.188.824.389.068.758.002 1.106-.197a2.8 2.8 0 0 0 .914-.864 3.52 3.52 0 0 0 .536-1.304c.166-.707.134-1.27-.096-1.689-.218-.428-.595-.688-1.131-.782-.431-.075-.84-.022-1.229.16-.379.183-.705.473-.98.869-.273.385-.456.846-.549 1.382l-.082-1.021a2.93 2.93 0 0 1 .572-1.33c.303-.369.675-.64 1.116-.812s.915-.215 1.419-.127c.746.13 1.301.486 1.665 1.07.366.572.453 1.351.26 2.335-.137.658-.391 1.247-.763 1.767-.36.511-.8.895-1.321 1.151s-1.096.328-1.727.218z" class="D"/><path d="M199.848 272.997c-.084-.014-.158-.06-.22-.136-.052-.074-.073-.175-.061-.303.013-.138.084-.294.211-.466l6.244-8.625.212.557-4.24-.739c-.169-.029-.287-.093-.357-.192-.067-.109-.096-.222-.087-.34.008-.107.056-.196.144-.267s.217-.092.385-.063l4.524.788c.178.031.287.12.327.268.051.139.019.29-.096.454l-6.255 8.688c-.113.154-.235.262-.365.326a.65.65 0 0 1-.366.05z" class="D"/><path d="M242.972 279.646c.546.095 1.01.013 1.39-.245.392-.257.646-.722.763-1.394.049-.284.001-.596-.146-.935a6.42 6.42 0 0 0-.55-1.038l-.604-.917-.234-.333-.406-.558-.487-.751a4.14 4.14 0 0 1-.37-.86 1.87 1.87 0 0 1-.059-.871c.093-.536.31-.942.651-1.218a2.41 2.41 0 0 1 1.198-.539 3.91 3.91 0 0 1 1.365-.006c.42.073.82.203 1.199.388.381.174.673.425.876.753.215.319.277.741.185 1.267-.065.378-.283.725-.652 1.039-.356.306-.797.598-1.321.875l-1.584.796c-.533.264-.978.517-1.334.758-.354.231-.631.486-.832.765-.187.27-.316.605-.386 1.004-.104.599-.023 1.068.243 1.407.267.328.632.532 1.095.613zm-.196.843c-.357-.063-.683-.179-.978-.349a2.64 2.64 0 0 1-.714-.661c-.192-.26-.325-.554-.398-.881-.072-.337-.075-.69-.011-1.057a3.55 3.55 0 0 1 .443-1.239c.223-.351.54-.675.949-.972.421-.305.975-.626 1.661-.961l1.423-.71c.451-.225.826-.452 1.126-.681.312-.238.492-.494.539-.767.059-.336.022-.592-.11-.766s-.326-.306-.581-.394a5.48 5.48 0 0 0-.84-.211 3.12 3.12 0 0 0-.873-.022 1.67 1.67 0 0 0-.781.286c-.222.156-.363.403-.421.739-.05.284-.013.571.109.863a4.89 4.89 0 0 0 .442.824l.455.648.472.651c.298.398.559.795.783 1.192a5.63 5.63 0 0 1 .499 1.142c.122.357.156.693.101 1.008-.099.568-.306 1.041-.621 1.419a2.58 2.58 0 0 1-1.163.804c-.461.158-.964.19-1.511.095z" class="D"/><path d="M264.925 278.238a12 12 0 0 1 13.88-9.763l29.415 5.121-4.117 23.644-29.415-5.121c-6.529-1.137-10.9-7.352-9.763-13.881z" class="E"/><path d="M285.788 287.961c-.189-.033-.331-.122-.424-.269s-.114-.312-.06-.497l2.621-9.175a.71.71 0 0 1 .3-.418c.157-.092.314-.124.472-.097.178.031.314.12.408.266.096.136.114.312.054.529l-2.642 9.203c-.041.177-.134.307-.279.39-.132.075-.282.097-.45.068zm-.89-4.312c-.42-.074-.766-.231-1.038-.473-.259-.251-.45-.555-.572-.912a3.86 3.86 0 0 1-.186-1.169c.008-.421.069-.833.183-1.235.198-.702.474-1.266.83-1.691.357-.436.761-.734 1.211-.893s.912-.199 1.385-.117c.357.063.679.2.967.412.299.215.534.445.708.692l-.364 1.252c-.114-.279-.249-.498-.406-.655-.144-.166-.312-.293-.502-.38a2.4 2.4 0 0 0-.617-.188c-.399-.07-.782.047-1.149.352-.355.295-.633.804-.835 1.527a3.99 3.99 0 0 0-.168 1.059c.005.347.067.64.189.877a.77.77 0 0 0 .578.409.95.95 0 0 0 .619-.103c.204-.116.402-.287.593-.514s.365-.483.523-.769c.171-.295.322-.605.454-.928l.384-.989.425.074-.849 2.922c-.199.268-.428.526-.687.773a2.87 2.87 0 0 1-.812.557c-.281.124-.569.161-.864.11z" class="B"/><path transform="matrix(.985177 .171541 -.171541 .985177 308.22 273.597)" d="M0 0h41.857v24H0z" class="E"/><path d="M320.607 294.024c-.189-.033-.331-.117-.427-.253-.083-.144-.094-.33-.033-.557l2.615-9.143c.056-.196.156-.336.301-.419a.7.7 0 0 1 .484-.078.55.55 0 0 1 .409.266c.085.134.1.293.046.479l-2.629 9.222c-.057.206-.157.346-.3.418a.72.72 0 0 1-.466.065zm6.402 1.131c-.799-.139-1.418-.468-1.858-.989-.429-.519-.685-1.164-.767-1.936s.004-1.607.258-2.505c.232-.837.508-1.584.829-2.243.332-.668.712-1.23 1.138-1.686.436-.455.921-.782 1.454-.981.543-.198 1.14-.24 1.792-.127.672.118 1.204.362 1.594.733a2.95 2.95 0 0 1 .834 1.363c.156.536.218 1.115.185 1.737-.031.612-.131 1.217-.3 1.816-.318 1.081-.729 2.011-1.233 2.79-.502.768-1.087 1.332-1.756 1.692-.658.361-1.382.474-2.17.336zm.261-1.124c.431.075.828.031 1.192-.133.366-.174.7-.441 1-.8a6.42 6.42 0 0 0 .809-1.289c.239-.499.441-1.038.607-1.616a8.59 8.59 0 0 0 .284-1.444c.052-.489.039-.941-.041-1.355-.068-.413-.225-.759-.468-1.04s-.596-.461-1.059-.542c-.41-.071-.783-.039-1.121.097a2.51 2.51 0 0 0-.907.638c-.265.279-.502.611-.71.997s-.393.798-.556 1.235l-.432 1.273c-.307 1.138-.326 2.055-.057 2.751s.755 1.106 1.459 1.228z" class="B"/><path transform="matrix(.985177 .171541 -.171541 .985177 349.457 280.776)" d="M0 0h41.857v24H0z" class="E"/><path d="M364.491 301.665c-.189-.033-.331-.117-.426-.253-.084-.144-.095-.33-.033-.558l2.615-9.143c.056-.196.156-.335.3-.418s.306-.11.485-.078c.189.033.325.121.408.266.085.133.101.293.047.479l-2.629 9.221c-.058.207-.158.346-.3.419s-.298.094-.467.065zm3.726.649c-.19-.033-.332-.118-.427-.253-.083-.145-.094-.331-.033-.558l2.615-9.143c.056-.196.156-.336.3-.419s.306-.109.485-.078c.189.033.325.122.408.266.085.134.101.294.047.479l-2.629 9.222c-.058.207-.158.346-.3.419s-.298.094-.466.065z" class="B"/><path transform="matrix(.985177 .171541 -.171541 .985177 97.2332 265.28)" d="M0 0h41.857v24H0z" class="E"/><path d="M110.159 285.802c-.189-.033-.331-.117-.427-.253-.083-.145-.094-.331-.033-.558l2.616-9.143c.055-.196.155-.336.3-.419a.7.7 0 0 1 .484-.078c.19.033.326.122.409.266.085.134.1.294.046.479l-2.628 9.222c-.058.207-.158.346-.301.419a.73.73 0 0 1-.466.065zm9.013.968a.64.64 0 0 1-.213.385c-.105.101-.262.133-.472.097l-4.997-.87a.58.58 0 0 1-.369-.211c-.076-.121-.102-.256-.076-.403s.103-.279.232-.398l1.21-1.072 1.315-1.119 1.22-1.038.977-.853.572-.485a9.11 9.11 0 0 0 .726-.718 7.47 7.47 0 0 0 .586-.759c.174-.251.28-.487.319-.708.044-.252-.038-.467-.246-.644s-.489-.296-.847-.358c-.41-.072-.859-.069-1.349.008-.488.067-.908.21-1.261.431-.278.168-.511.23-.698.187-.186-.054-.316-.142-.393-.264a.78.78 0 0 1-.086-.437c.027-.158.164-.318.409-.481.301-.175.651-.32 1.05-.434a5.88 5.88 0 0 1 1.274-.233c.441-.043.861-.029 1.26.041.494.086.909.25 1.246.493a2.06 2.06 0 0 1 .741.876c.157.341.201.711.131 1.111-.071.409-.283.849-.635 1.318-.341.461-.819.968-1.435 1.521l-.823.717-1.236 1.035-1.408 1.184-1.302 1.138-.068-.45 4.067.708c.231.04.39.122.477.245.097.125.131.272.102.44z" class="B"/><path transform="matrix(.985177 .171541 -.171541 .985177 138.47 272.461)" d="M0 0h41.857v24H0z" class="E"/><path d="M151.219 292.952a.63.63 0 0 1-.427-.253c-.083-.145-.094-.331-.033-.558l2.615-9.143c.056-.196.156-.336.3-.419s.306-.109.485-.078c.189.033.325.122.408.266.085.134.101.294.047.479l-2.629 9.222c-.058.206-.158.346-.3.419s-.298.094-.466.065zm3.184-1.005c.121-.131.255-.188.404-.173.16.017.323.105.49.264.166.169.388.322.668.457s.608.236.987.302c.84.146 1.535.105 2.084-.125.55-.239.902-.644 1.055-1.212.135-.464.139-.859.012-1.184-.115-.334-.322-.608-.62-.823s-.658-.39-1.078-.528-.861-.248-1.323-.328a.49.49 0 0 1-.351-.224c-.076-.121-.102-.256-.076-.403a.51.51 0 0 1 .226-.366c.124-.087.259-.118.406-.092.641.112 1.218.158 1.73.139.524-.028.961-.141 1.31-.341.361-.207.607-.533.738-.975.092-.342.082-.625-.031-.85a1.25 1.25 0 0 0-.551-.567c-.256-.142-.569-.245-.936-.309a3.77 3.77 0 0 0-1.115-.032c-.353.036-.639.089-.857.159-.182.055-.363.067-.542.036-.168-.029-.283-.114-.345-.255a.48.48 0 0 1-.005-.44.76.76 0 0 1 .371-.357c.238-.121.606-.214 1.104-.279a5.04 5.04 0 0 1 1.618.038 4.29 4.29 0 0 1 1.527.558 2.38 2.38 0 0 1 .952 1.059c.197.424.213.925.047 1.503a2.21 2.21 0 0 1-.642 1.074 2.77 2.77 0 0 1-1.133.631c-.444.128-.962.178-1.553.151l.094-.259c.616.194 1.115.47 1.496.829.392.36.651.768.778 1.223.137.457.134.938-.008 1.444-.268.917-.799 1.572-1.593 1.964s-1.789.484-2.987.276c-.547-.095-1.019-.243-1.417-.442-.386-.208-.674-.42-.864-.638-.142-.176-.222-.341-.238-.496-.006-.152.05-.289.168-.409z" class="B"/><path d="M179.707 279.641l29.414 5.121c6.529 1.137 10.901 7.352 9.764 13.881s-7.352 10.9-13.881 9.764l-29.414-5.122 4.117-23.644z" class="E"/><path d="M192.586 300.154c-.189-.033-.331-.117-.427-.253-.083-.144-.094-.33-.032-.558l2.615-9.143c.056-.196.156-.335.3-.418s.306-.11.485-.078c.189.033.325.121.408.266.085.133.101.293.047.479l-2.629 9.221c-.058.207-.158.346-.301.419s-.297.094-.466.065zm6.248 1.088c-.179-.031-.309-.124-.39-.279s-.092-.346-.03-.574l1.703-5.956c.055-.196.153-.32.292-.371a.96.96 0 0 1 .476-.031c.179.031.303.123.374.276.073.143.081.312.025.508l-1.684 5.943c-.058.207-.158.346-.3.419-.132.074-.288.096-.466.065zm-1.955-3.978c-.168-.03-.3-.112-.395-.248a.57.57 0 0 1-.071-.434l1.684-5.846c.058-.207.162-.34.313-.4s.301-.078.448-.052c.157.027.284.109.379.244.108.127.133.294.076.501l-1.642 5.788-.408-.64 4.965.865c.19.033.333.112.43.237.108.127.143.269.105.424a.58.58 0 0 1-.226.367c-.115.099-.267.132-.456.099l-5.202-.905z" class="B"/><path d="M233.923 307.352c-.189-.033-.331-.117-.427-.253-.083-.144-.094-.33-.033-.558l2.615-9.143c.056-.196.156-.335.301-.418a.7.7 0 0 1 .484-.078.55.55 0 0 1 .409.266c.085.134.1.293.046.479l-2.629 9.221c-.057.207-.157.347-.3.419s-.298.094-.466.065zm5.33.945c-.41-.072-.807-.217-1.191-.435-.372-.227-.654-.471-.847-.732-.184-.249-.261-.457-.232-.625s.11-.29.242-.364.272-.099.419-.074a.43.43 0 0 1 .236.139c.074.067.139.132.193.196.161.191.391.366.688.526a3.35 3.35 0 0 0 .921.306c.462.081.89.047 1.284-.101.396-.158.733-.414 1.011-.766.279-.363.466-.812.559-1.348.097-.557-.006-1.024-.308-1.402s-.769-.621-1.399-.73c-.263-.046-.525-.065-.786-.056-.249 0-.572.019-.969.059-.219.016-.392-.047-.519-.188a.56.56 0 0 1-.102-.538l1.206-4.126c.115-.413.425-.576.929-.488l4.067.708c.221.039.38.121.477.246a.47.47 0 0 1 .089.421c-.025.148-.096.271-.21.37-.113.088-.28.113-.501.075l-4.303-.749.717-.476-1.201 4.094-.418-.397.761-.079a4.33 4.33 0 0 1 .571-.014 4.88 4.88 0 0 1 .573.067c.977.17 1.694.533 2.149 1.089s.607 1.27.455 2.142c-.144.83-.425 1.512-.843 2.045-.416.524-.94.892-1.573 1.107-.631.204-1.346.237-2.145.098z" class="B"/><path d="M275.221 314.543c-.189-.033-.331-.118-.427-.253-.083-.145-.094-.331-.032-.558l2.615-9.143c.056-.196.156-.336.3-.419s.306-.109.485-.078c.189.033.325.122.408.266.085.134.101.294.047.479l-2.629 9.222c-.058.206-.158.346-.301.419a.73.73 0 0 1-.466.065zm5.804 1.026a2.6 2.6 0 0 1-1.306-.617c-.364-.334-.627-.753-.788-1.258s-.19-1.051-.088-1.639c.275-1.576.673-2.904 1.197-3.982.534-1.076 1.164-1.865 1.89-2.367.728-.512 1.517-.694 2.369-.545a2.79 2.79 0 0 1 1.049.41 2.8 2.8 0 0 1 .833.811.68.68 0 0 1 .139.414c.008.142-.069.274-.232.398-.172.121-.336.158-.49.109-.143-.046-.283-.146-.418-.3a1.61 1.61 0 0 0-.502-.477c-.215-.135-.459-.226-.732-.274-.557-.097-1.086.082-1.587.536-.5.444-.949 1.129-1.349 2.055-.389.929-.7 2.06-.932 3.395-.099.567-.033 1.06.197 1.479.243.411.6.657 1.073.739a1.53 1.53 0 0 0 1.001-.15c.322-.172.599-.426.831-.765a3.1 3.1 0 0 0 .48-1.167c.143-.636.112-1.144-.092-1.526-.202-.393-.54-.63-1.013-.713a1.89 1.89 0 0 0-1.111.132c-.341.157-.634.409-.878.756-.243.337-.406.742-.488 1.215l-.116-1.011c.088-.505.277-.937.567-1.298.301-.359.665-.621 1.094-.784.431-.174.889-.219 1.372-.135.767.134 1.332.497 1.694 1.091s.449 1.372.259 2.335c-.154.699-.416 1.303-.786 1.812s-.826.885-1.366 1.126c-.529.244-1.12.309-1.771.195z" class="B"/><path d="M316.643 321.755c-.189-.032-.332-.117-.427-.253-.083-.144-.094-.33-.033-.557l2.615-9.143c.056-.196.156-.336.3-.419s.306-.109.485-.078c.189.033.325.122.408.266.085.134.101.294.047.479l-2.629 9.222c-.058.206-.158.346-.3.418a.72.72 0 0 1-.466.065zm4.087.712c-.105-.018-.203-.073-.296-.165-.08-.101-.122-.232-.126-.396s.071-.344.225-.545l5.897-8.214.227.559-3.925-.683c-.21-.037-.363-.123-.458-.259s-.136-.278-.121-.427.08-.273.195-.372c.125-.097.293-.128.503-.091l4.461.777c.252.044.411.158.476.342s.025.384-.12.597l-6.064 8.428c-.117.175-.258.302-.423.381-.153.071-.303.094-.451.068z" class="B"/><path d="M357.887 328.936c-.189-.032-.331-.117-.427-.253-.083-.144-.094-.33-.033-.557l2.616-9.143c.055-.196.156-.336.3-.419a.7.7 0 0 1 .484-.078c.19.033.326.122.409.266.085.134.1.294.046.479l-2.628 9.222c-.058.206-.158.346-.301.418a.72.72 0 0 1-.466.065zm5.885-.095c.494.086.918.013 1.272-.217s.58-.625.677-1.182c.049-.284.005-.589-.133-.916s-.313-.656-.527-.985l-.593-.883-.26-.37-.381-.521-.476-.716a4.13 4.13 0 0 1-.357-.842c-.089-.297-.107-.598-.054-.903.099-.567.321-1 .665-1.297a2.57 2.57 0 0 1 1.235-.565 3.85 3.85 0 0 1 1.399-.016 4.46 4.46 0 0 1 1.244.412c.4.189.712.449.936.78s.293.744.207 1.238c-.07.399-.284.757-.642 1.074-.346.307-.77.596-1.271.866l-1.587.812c-.569.28-1.032.546-1.389.798-.356.241-.627.491-.813.751a2.26 2.26 0 0 0-.349.882c-.091.525-.017.938.223 1.24a1.53 1.53 0 0 0 .974.56zm-.208 1.1c-.41-.071-.771-.204-1.083-.4-.3-.203-.55-.447-.75-.731-.189-.282-.319-.592-.39-.929-.061-.335-.062-.671-.004-1.007.075-.431.226-.827.451-1.189.238-.37.574-.717 1.01-1.042.437-.335 1.004-.669 1.701-1.003l1.349-.658c.428-.218.784-.432 1.07-.642s.448-.431.489-.662c.045-.263.011-.469-.104-.619s-.289-.267-.523-.351a3.4 3.4 0 0 0-.727-.208c-.263-.046-.533-.049-.81-.011a1.64 1.64 0 0 0-.715.282c-.2.149-.325.371-.376.665-.046.263-.016.528.089.795.115.269.256.521.421.755l.442.63.448.597a10.69 10.69 0 0 1 .77 1.174c.236.387.413.77.531 1.148.12.367.151.719.093 1.055-.092.526-.291.984-.597 1.374s-.698.68-1.174.868c-.475.177-1.012.214-1.611.109z" class="B"/><path d="M105.826 313.469a.63.63 0 0 1-.427-.253c-.083-.145-.094-.331-.033-.558l2.615-9.143c.056-.196.156-.336.3-.419s.306-.109.485-.078c.189.033.325.122.408.266.085.134.101.294.047.479l-2.629 9.222c-.058.206-.158.346-.3.419s-.298.094-.466.065zm7.272 1.266a.6.6 0 0 1-.425-.269c-.093-.146-.113-.312-.059-.498l2.62-9.174a.71.71 0 0 1 .301-.419c.156-.092.314-.124.471-.096a.58.58 0 0 1 .409.266c.095.135.113.312.054.529l-2.642 9.203c-.042.177-.135.307-.279.39-.132.074-.282.097-.45.068zm-.89-4.313c-.42-.073-.766-.231-1.038-.473-.26-.251-.45-.555-.572-.912a3.86 3.86 0 0 1-.186-1.169c.008-.421.069-.832.182-1.235.198-.702.475-1.265.83-1.69.358-.436.762-.734 1.212-.894a2.69 2.69 0 0 1 1.384-.116c.357.062.68.199.968.412.298.214.534.445.708.692l-.365 1.252c-.113-.28-.248-.498-.405-.656-.144-.165-.312-.292-.502-.379-.18-.086-.386-.149-.617-.189-.4-.069-.783.048-1.15.352-.354.296-.632.805-.834 1.528-.106.36-.162.713-.168 1.058.004.348.067.64.188.878.123.227.316.363.578.409.211.037.417.002.619-.103.205-.116.402-.288.593-.514s.366-.483.524-.77c.171-.295.322-.604.454-.928l.383-.989.426.075-.85 2.921c-.198.269-.427.527-.687.774a2.87 2.87 0 0 1-.811.557c-.282.124-.57.16-.864.109z" class="B"/><path d="M149.233 320.426c-.028.158-.099.286-.214.385-.104.101-.261.133-.471.097l-4.997-.87c-.158-.028-.281-.098-.369-.211a.55.55 0 0 1-.076-.403.7.7 0 0 1 .231-.398l1.21-1.072 1.316-1.119 1.22-1.038.977-.853.571-.485c.256-.227.498-.466.726-.719a7.34 7.34 0 0 0 .587-.758c.174-.251.28-.487.318-.708.044-.252-.038-.467-.245-.644s-.49-.296-.847-.358c-.41-.072-.86-.069-1.349.008-.488.067-.909.21-1.261.431-.278.168-.511.23-.698.187-.186-.054-.317-.142-.393-.264a.77.77 0 0 1-.086-.437c.027-.158.163-.318.408-.481.301-.175.651-.32 1.05-.434a5.9 5.9 0 0 1 1.275-.233c.441-.043.861-.029 1.26.041.494.086.909.25 1.246.493.338.232.585.524.74.876.158.341.201.711.132 1.111-.071.409-.283.849-.636 1.318-.34.461-.818.967-1.434 1.521l-.823.717-1.236 1.035-1.408 1.184-1.302 1.138-.068-.45 4.067.708c.231.04.39.122.477.245.097.125.131.272.102.44zm5.332 1.546c-.799-.139-1.418-.469-1.858-.99-.429-.518-.685-1.164-.767-1.936s.004-1.607.258-2.505c.232-.836.508-1.584.829-2.243.332-.667.712-1.229 1.138-1.686.436-.454.921-.781 1.453-.981.544-.197 1.141-.24 1.793-.126.672.117 1.204.361 1.594.732a2.95 2.95 0 0 1 .834 1.363c.156.536.217 1.116.185 1.738-.031.612-.131 1.217-.3 1.815-.318 1.082-.729 2.012-1.233 2.79-.502.768-1.087 1.332-1.756 1.692-.659.362-1.382.474-2.17.337zm.261-1.124c.431.075.828.03 1.192-.134.366-.174.7-.441 1-.8.303-.369.573-.799.809-1.288.239-.5.441-1.039.607-1.616a8.6 8.6 0 0 0 .284-1.445c.052-.489.039-.94-.041-1.355a2.07 2.07 0 0 0-.468-1.04c-.244-.28-.597-.461-1.059-.541-.41-.072-.784-.039-1.121.097a2.5 2.5 0 0 0-.907.638c-.265.278-.502.611-.71.997s-.393.798-.556 1.235l-.432 1.272c-.307 1.138-.326 2.055-.057 2.751s.755 1.106 1.459 1.229z" class="B"/><path d="M193.117 328.067a.63.63 0 0 1-.213.385c-.104.101-.262.133-.472.097l-4.996-.87a.58.58 0 0 1-.37-.211.56.56 0 0 1-.076-.403.7.7 0 0 1 .232-.398l1.21-1.072 1.315-1.119 1.22-1.039.977-.853.572-.485c.256-.226.498-.465.726-.718a7.48 7.48 0 0 0 .587-.758c.173-.252.279-.488.318-.708.044-.253-.038-.467-.245-.644s-.49-.296-.847-.359c-.41-.071-.86-.068-1.35.009-.488.067-.908.21-1.26.43-.279.168-.512.231-.699.187-.185-.054-.316-.141-.393-.263a.78.78 0 0 1-.086-.437c.028-.158.164-.318.409-.481a4.64 4.64 0 0 1 1.05-.435 5.88 5.88 0 0 1 1.275-.232 4.69 4.69 0 0 1 1.259.04c.494.086.91.251 1.246.493.339.232.586.524.741.876a1.84 1.84 0 0 1 .131 1.111c-.071.41-.283.85-.635 1.319-.34.46-.818.967-1.434 1.52l-.824.718-1.236 1.035-1.408 1.184-1.302 1.138-.068-.451 4.067.708c.231.041.39.122.477.246.097.125.131.272.102.44zm2.656 1.063c-.19-.033-.332-.117-.427-.253-.083-.144-.094-.33-.033-.558l2.615-9.143c.056-.196.156-.335.3-.418s.306-.109.485-.078c.189.033.325.121.408.266.085.134.101.293.047.479l-2.629 9.221c-.058.207-.158.347-.3.419s-.298.094-.466.065z" class="B"/><path d="M232.245 334.88a.64.64 0 0 1-.213.385c-.105.101-.262.134-.472.097l-4.997-.87c-.157-.027-.281-.098-.369-.211a.55.55 0 0 1-.076-.403c.025-.147.103-.279.232-.398l1.209-1.072 1.316-1.119 1.22-1.038.977-.853.572-.485a9.46 9.46 0 0 0 .726-.718 7.36 7.36 0 0 0 .586-.759c.174-.251.28-.487.318-.708.044-.252-.037-.467-.245-.643s-.489-.297-.847-.359c-.41-.071-.859-.069-1.349.009-.488.066-.908.21-1.261.43-.278.168-.511.23-.698.187-.186-.054-.317-.142-.393-.264a.78.78 0 0 1-.086-.437c.027-.157.164-.318.408-.481.302-.175.652-.32 1.051-.434a5.88 5.88 0 0 1 1.274-.233c.441-.042.861-.029 1.26.041.494.086.909.25 1.246.493.338.232.585.524.741.876.157.341.201.711.131 1.111-.071.41-.283.849-.636 1.318-.34.461-.818.968-1.434 1.521l-.823.717-1.236 1.036-1.408 1.184-1.302 1.137-.068-.45 4.067.708c.231.04.39.122.477.245a.54.54 0 0 1 .102.44zm7.943 1.383c-.028.158-.099.286-.213.386-.105.1-.262.133-.472.096l-4.997-.87c-.157-.027-.281-.098-.369-.21-.076-.122-.102-.256-.076-.403s.103-.28.232-.399l1.209-1.072 1.316-1.119 1.22-1.038.977-.853.572-.485a9.27 9.27 0 0 0 .725-.718 7.24 7.24 0 0 0 .587-.759c.174-.251.28-.487.318-.708.044-.252-.037-.467-.245-.643s-.49-.297-.847-.359c-.41-.071-.859-.069-1.349.009-.488.066-.908.21-1.261.43-.278.168-.511.23-.698.187-.186-.054-.317-.142-.393-.264a.78.78 0 0 1-.086-.437c.027-.157.164-.318.408-.481.302-.175.652-.32 1.051-.434a5.94 5.94 0 0 1 1.274-.233c.441-.042.861-.029 1.26.041.494.086.909.25 1.246.493.338.232.585.524.741.876.157.341.201.712.131 1.111-.071.41-.283.849-.636 1.318-.34.461-.818.968-1.434 1.521l-.823.717-1.236 1.036-1.408 1.184-1.302 1.137-.068-.45 4.067.708c.231.04.39.122.477.245a.54.54 0 0 1 .102.44z" class="B"/><rect x="257.377" y="321.586" width="41.857" height="24" rx="12" transform="rotate(9.877 257.377 321.586)" class="E"/><path d="M273.305 342.029c-.028.158-.099.286-.214.385-.104.101-.261.133-.471.097l-4.997-.87c-.158-.028-.281-.098-.369-.211a.55.55 0 0 1-.076-.403c.025-.147.102-.28.231-.398l1.21-1.072 1.316-1.119 1.22-1.038.977-.853.571-.485a9.11 9.11 0 0 0 .726-.718c.23-.264.426-.516.587-.759.174-.251.28-.487.318-.708.044-.252-.038-.467-.245-.644s-.49-.296-.847-.358c-.41-.072-.86-.069-1.349.008-.488.067-.909.21-1.261.431-.278.168-.511.23-.698.187-.186-.054-.317-.142-.393-.264a.77.77 0 0 1-.086-.437c.027-.158.163-.318.408-.481.301-.175.651-.32 1.05-.434a5.9 5.9 0 0 1 1.275-.233c.441-.043.861-.029 1.26.041.494.086.909.25 1.246.493.338.232.585.524.74.876.158.341.201.711.132 1.111-.072.409-.283.849-.636 1.318-.34.461-.818.968-1.434 1.521l-.823.717-1.236 1.035-1.408 1.184-1.302 1.138-.068-.45 4.067.708c.231.04.39.122.477.245.097.125.131.272.102.44zm2.115-.59c.12-.13.254-.188.403-.173.16.017.323.105.49.264.166.169.388.322.668.457s.608.236.987.302c.84.146 1.535.105 2.084-.124a1.77 1.77 0 0 0 1.056-1.213c.134-.464.138-.859.011-1.184a1.66 1.66 0 0 0-.62-.822 3.94 3.94 0 0 0-1.078-.529 9.44 9.44 0 0 0-1.323-.328.49.49 0 0 1-.351-.223.56.56 0 0 1-.076-.403.51.51 0 0 1 .226-.367c.124-.087.259-.117.406-.092.641.112 1.218.158 1.73.139.525-.028.961-.141 1.31-.34.361-.208.607-.533.738-.976.092-.341.082-.625-.031-.85-.11-.236-.294-.425-.55-.567a2.99 2.99 0 0 0-.937-.309 3.77 3.77 0 0 0-1.115-.032 4.23 4.23 0 0 0-.856.16c-.183.054-.364.066-.543.035-.168-.029-.283-.114-.345-.255a.48.48 0 0 1-.005-.439c.07-.151.193-.27.371-.358.238-.121.606-.214 1.104-.279.501-.075 1.04-.062 1.618.038s1.087.287 1.527.559a2.37 2.37 0 0 1 .952 1.059c.197.424.213.924.047 1.502a2.21 2.21 0 0 1-.642 1.074 2.77 2.77 0 0 1-1.133.631c-.444.128-.962.179-1.553.152l.094-.26c.616.194 1.115.47 1.496.829.392.36.651.768.778 1.223.137.457.134.939-.008 1.444-.268.917-.799 1.572-1.592 1.964s-1.79.484-2.988.276c-.546-.095-1.019-.242-1.417-.442-.386-.208-.674-.42-.864-.637-.142-.177-.222-.342-.238-.497-.006-.152.05-.289.169-.409z" class="B"/><path d="M314.672 349.233a.64.64 0 0 1-.213.385c-.104.101-.262.133-.472.096l-4.997-.87c-.157-.027-.28-.097-.369-.21-.076-.122-.102-.256-.076-.403a.7.7 0 0 1 .232-.398l1.21-1.073 1.315-1.119 1.22-1.038.977-.853.572-.485c.256-.226.498-.465.726-.718a7.38 7.38 0 0 0 .587-.759c.173-.251.279-.487.318-.708a.65.65 0 0 0-.246-.643c-.207-.177-.489-.297-.847-.359-.409-.071-.859-.068-1.349.009-.488.066-.908.21-1.261.43-.278.168-.511.23-.698.187-.185-.054-.316-.142-.393-.263-.072-.143-.101-.289-.086-.438.028-.157.164-.318.409-.481a4.64 4.64 0 0 1 1.05-.434 5.94 5.94 0 0 1 1.275-.233c.44-.042.86-.029 1.259.041.494.086.909.25 1.246.493.339.232.586.524.741.876.157.341.201.712.131 1.111-.071.41-.283.849-.635 1.319-.34.46-.818.967-1.434 1.52l-.824.718-1.236 1.035-1.408 1.184-1.302 1.137-.068-.45 4.067.708c.231.04.39.122.477.246.097.125.131.272.102.44zm5.178 1.502c-.179-.031-.309-.124-.39-.279s-.092-.346-.03-.574l1.703-5.956c.055-.196.153-.32.292-.371a.96.96 0 0 1 .476-.031c.179.031.303.123.374.276.073.143.081.312.025.508l-1.684 5.943c-.058.207-.158.346-.3.419-.132.075-.288.096-.466.065zm-1.955-3.978c-.168-.029-.3-.112-.395-.248-.084-.144-.107-.289-.071-.434l1.684-5.846c.057-.207.162-.34.313-.4s.301-.078.448-.052c.157.027.284.109.379.245.108.127.133.293.076.5l-1.642 5.788-.408-.639 4.965.864c.189.033.333.112.43.237.108.127.143.269.105.425-.026.147-.101.269-.227.366-.114.099-.266.133-.455.1l-5.202-.906z" class="B"/><path d="M356.009 356.43c-.028.157-.099.286-.213.385-.105.101-.262.133-.472.096l-4.997-.87c-.157-.027-.28-.097-.369-.21-.076-.122-.102-.256-.076-.403a.7.7 0 0 1 .232-.398l1.21-1.073 1.315-1.119 1.22-1.038.977-.853.572-.485c.256-.226.498-.465.726-.718a7.36 7.36 0 0 0 .586-.759c.174-.251.28-.487.319-.707.043-.253-.038-.467-.246-.644s-.489-.296-.847-.359c-.41-.071-.859-.068-1.349.009a3.17 3.17 0 0 0-1.261.43c-.278.168-.511.231-.698.187-.186-.054-.316-.142-.393-.263a.78.78 0 0 1-.086-.437c.027-.158.164-.318.409-.481a4.64 4.64 0 0 1 1.05-.435 5.94 5.94 0 0 1 1.274-.233c.441-.042.861-.028 1.26.041.494.086.909.25 1.246.493a2.06 2.06 0 0 1 .741.876 1.84 1.84 0 0 1 .131 1.111c-.071.41-.283.85-.635 1.319-.341.46-.819.967-1.435 1.52l-.823.718-1.236 1.035-1.408 1.184-1.302 1.137-.068-.45 4.067.708c.231.041.39.122.477.246.097.125.131.272.102.44zm4.26 1.359c-.409-.072-.806-.217-1.191-.435-.372-.227-.654-.471-.847-.732-.184-.249-.261-.457-.232-.625s.11-.29.242-.364a.61.61 0 0 1 .419-.073.42.42 0 0 1 .236.138 2.07 2.07 0 0 1 .193.196c.162.191.391.366.688.526a3.35 3.35 0 0 0 .921.307c.462.08.89.046 1.284-.102.396-.158.733-.413 1.011-.766.279-.362.466-.812.559-1.348.097-.557-.005-1.024-.308-1.401s-.769-.621-1.399-.731c-.263-.046-.525-.064-.786-.056a10.36 10.36 0 0 0-.969.059c-.219.016-.392-.047-.519-.188-.125-.152-.159-.331-.102-.537l1.206-4.127c.115-.413.425-.575.93-.487l4.066.708c.221.038.38.12.477.245a.47.47 0 0 1 .089.422.61.61 0 0 1-.21.369c-.113.089-.28.114-.5.075l-4.304-.749.717-.476-1.201 4.095-.418-.398.761-.079a4.51 4.51 0 0 1 .571-.014 5.1 5.1 0 0 1 .573.067c.977.171 1.694.533 2.149 1.089s.607 1.27.455 2.142c-.144.83-.425 1.512-.843 2.046-.416.523-.94.892-1.573 1.106-.631.204-1.346.237-2.145.098z" class="B"/><path d="M103.847 340.944c-.027.158-.098.286-.213.386-.104.1-.262.133-.472.096l-4.997-.87c-.158-.027-.281-.098-.369-.21-.076-.122-.102-.256-.076-.403a.7.7 0 0 1 .232-.399l1.21-1.072 1.315-1.119 1.22-1.038.977-.853.572-.485a9.11 9.11 0 0 0 .726-.718 7.38 7.38 0 0 0 .587-.759c.173-.251.279-.487.318-.708a.65.65 0 0 0-.245-.643c-.208-.177-.49-.297-.848-.359-.409-.071-.859-.069-1.349.009-.488.066-.908.21-1.26.43-.279.168-.512.23-.699.187-.185-.054-.316-.142-.393-.264-.072-.142-.101-.288-.086-.437.028-.157.164-.318.409-.481.301-.175.651-.32 1.05-.434a5.94 5.94 0 0 1 1.275-.233c.44-.042.86-.029 1.259.041.494.086.91.25 1.246.493.339.232.586.524.741.876.157.341.201.712.131 1.111-.071.41-.283.849-.635 1.318-.34.461-.818.968-1.434 1.521l-.824.717-1.236 1.036-1.408 1.184-1.302 1.137-.068-.45 4.067.708c.231.04.39.122.477.245a.54.54 0 0 1 .102.44zm4.733 1.442a2.61 2.61 0 0 1-1.305-.617c-.364-.334-.627-.754-.788-1.258s-.19-1.051-.088-1.64c.274-1.576.673-2.903 1.197-3.981.534-1.077 1.164-1.866 1.89-2.367a3.06 3.06 0 0 1 2.369-.546 2.81 2.81 0 0 1 1.882 1.221.69.69 0 0 1 .139.414c.008.142-.07.275-.232.398-.172.122-.336.158-.49.11-.143-.047-.283-.147-.418-.3-.12-.184-.287-.343-.502-.478s-.459-.226-.732-.273c-.557-.097-1.086.081-1.587.535-.5.444-.949 1.129-1.349 2.056-.389.928-.7 2.059-.932 3.394-.099.567-.033 1.061.197 1.48a1.49 1.49 0 0 0 1.073.739 1.53 1.53 0 0 0 1.001-.151c.322-.171.599-.426.831-.765a3.1 3.1 0 0 0 .48-1.167c.143-.635.112-1.144-.092-1.526-.202-.392-.54-.63-1.013-.712a1.89 1.89 0 0 0-1.111.131 2.19 2.19 0 0 0-.878.757 2.88 2.88 0 0 0-.488 1.214l-.116-1.011c.087-.504.277-.937.567-1.298a2.63 2.63 0 0 1 1.094-.784c.431-.174.888-.219 1.372-.134.767.133 1.332.497 1.694 1.09s.448 1.372.259 2.335c-.154.699-.416 1.303-.786 1.812s-.826.885-1.366 1.127c-.529.243-1.12.308-1.772.195z" class="B"/><path d="M145.268 348.157a.63.63 0 0 1-.213.385c-.104.101-.261.133-.471.097l-4.997-.87a.58.58 0 0 1-.37-.211c-.076-.121-.101-.256-.076-.403s.103-.279.232-.398l1.21-1.072 1.315-1.119 1.221-1.038.976-.853.572-.485a9.11 9.11 0 0 0 .726-.718c.23-.264.426-.516.587-.759.174-.251.28-.487.318-.708.044-.252-.038-.467-.245-.644s-.49-.296-.847-.358a4.11 4.11 0 0 0-1.35.008c-.488.067-.908.21-1.26.431-.278.168-.511.23-.699.187-.185-.054-.316-.142-.392-.264a.77.77 0 0 1-.087-.437c.028-.158.164-.318.409-.481.301-.175.651-.32 1.05-.434a5.88 5.88 0 0 1 1.275-.233c.44-.043.86-.029 1.26.041.494.086.909.25 1.246.493.338.232.585.524.74.876.157.341.201.711.132 1.111-.072.409-.284.849-.636 1.318-.34.461-.818.968-1.434 1.521l-.823.717-1.236 1.035-1.408 1.184-1.303 1.138-.067-.45 4.066.708c.232.04.391.122.477.245a.53.53 0 0 1 .102.44zm3.018 1.127c-.105-.019-.203-.074-.296-.166a.64.64 0 0 1-.126-.395c-.004-.163.071-.345.225-.546l5.897-8.214.227.559-3.925-.683c-.21-.037-.363-.123-.458-.258s-.136-.279-.121-.427a.55.55 0 0 1 .195-.373c.125-.097.293-.127.503-.091l4.461.777c.252.044.411.158.476.343s.025.383-.12.596l-6.064 8.429c-.117.174-.258.301-.423.381-.153.071-.304.093-.451.068z" class="B"/><path d="M186.513 355.338a.64.64 0 0 1-.213.385c-.105.101-.262.134-.472.097l-4.997-.87a.58.58 0 0 1-.369-.211c-.076-.121-.102-.256-.076-.403s.103-.279.232-.398l1.21-1.072 1.315-1.119 1.22-1.038.977-.853.572-.485a9.11 9.11 0 0 0 .726-.718 7.47 7.47 0 0 0 .586-.759c.174-.251.28-.487.319-.708.043-.252-.038-.467-.246-.644s-.489-.296-.847-.358c-.41-.072-.859-.069-1.349.008-.488.067-.908.21-1.261.431-.278.168-.511.23-.698.187-.186-.054-.316-.142-.393-.264a.78.78 0 0 1-.086-.437c.027-.158.164-.318.409-.481.301-.175.651-.32 1.05-.434a5.88 5.88 0 0 1 1.274-.233c.441-.042.861-.029 1.26.041.494.086.909.25 1.246.493a2.06 2.06 0 0 1 .741.876c.157.341.201.711.131 1.111-.071.41-.283.849-.636 1.318-.34.461-.818.968-1.434 1.521l-.823.717-1.236 1.035-1.408 1.185-1.302 1.137-.068-.45 4.067.708c.231.04.39.122.477.245.097.125.131.272.102.44zm4.815.319c.494.086.918.014 1.272-.217s.58-.624.677-1.181c.049-.284.005-.59-.133-.917a6.35 6.35 0 0 0-.527-.985l-.593-.883-.261-.37-.38-.521-.476-.716c-.149-.264-.268-.545-.357-.842a1.94 1.94 0 0 1-.054-.902c.099-.568.32-1 .665-1.298a2.58 2.58 0 0 1 1.235-.564c.47-.091.937-.097 1.399-.016a4.49 4.49 0 0 1 1.244.411c.4.189.712.449.936.78s.293.744.207 1.238c-.07.399-.284.757-.642 1.074a6.65 6.65 0 0 1-1.271.867l-1.587.811c-.569.28-1.032.546-1.39.798-.356.241-.627.492-.813.752-.175.261-.291.555-.348.881-.091.525-.017.939.223 1.241s.564.488.974.559zm-.208 1.101a3 3 0 0 1-1.083-.4c-.3-.204-.55-.448-.75-.732a2.62 2.62 0 0 1-.39-.928 2.87 2.87 0 0 1-.004-1.008 3.29 3.29 0 0 1 .451-1.188c.238-.37.574-.718 1.01-1.042.437-.336 1.004-.67 1.701-1.003l1.349-.659c.428-.218.784-.432 1.07-.642s.448-.431.489-.662c.045-.262.011-.469-.104-.619s-.289-.267-.523-.351a3.4 3.4 0 0 0-.727-.207 2.62 2.62 0 0 0-.811-.012c-.266.041-.505.134-.714.282-.2.149-.325.371-.376.665-.046.263-.016.528.089.795a4.18 4.18 0 0 0 .42.756l.443.629.448.598a10.68 10.68 0 0 1 .77 1.173c.236.388.413.77.531 1.148.12.368.151.72.093 1.056-.092.525-.291.983-.597 1.374s-.698.68-1.174.867c-.475.177-1.012.214-1.611.11z" class="B"/><path d="M227.911 362.547a.63.63 0 0 1-.213.385c-.104.101-.262.133-.472.097l-4.997-.87a.58.58 0 0 1-.369-.211c-.076-.121-.102-.256-.076-.403a.7.7 0 0 1 .232-.398l1.21-1.072 1.315-1.119 1.22-1.038.977-.853.572-.486c.256-.226.498-.465.726-.718a7.48 7.48 0 0 0 .587-.758c.173-.251.279-.487.318-.708.044-.252-.038-.467-.245-.644s-.49-.296-.848-.358c-.409-.072-.859-.069-1.349.008-.488.067-.908.21-1.26.43-.279.169-.512.231-.699.187-.185-.054-.316-.141-.393-.263a.78.78 0 0 1-.086-.437c.028-.158.164-.318.409-.481a4.64 4.64 0 0 1 1.05-.435 5.94 5.94 0 0 1 1.275-.232 4.69 4.69 0 0 1 1.259.04c.494.086.91.251 1.246.493.339.233.586.525.741.876a1.84 1.84 0 0 1 .131 1.111c-.071.41-.283.85-.635 1.319-.34.461-.818.967-1.434 1.521l-.824.717-1.236 1.035-1.408 1.184-1.302 1.138-.068-.451 4.067.709c.231.04.39.122.477.245.097.125.131.272.102.44zm6.202 1.681a.6.6 0 0 1-.424-.269c-.094-.146-.114-.312-.06-.497l2.621-9.175c.054-.185.154-.325.3-.419.157-.091.314-.124.472-.096a.58.58 0 0 1 .408.266c.096.136.114.312.054.529l-2.642 9.203c-.041.177-.134.307-.279.39-.132.075-.282.097-.45.068zm-.889-4.313c-.421-.073-.767-.231-1.038-.473a2.26 2.26 0 0 1-.573-.911c-.12-.368-.182-.758-.186-1.17.009-.42.069-.832.183-1.235.198-.701.475-1.265.83-1.69.358-.436.761-.734 1.211-.894s.912-.198 1.385-.116c.357.062.68.2.967.412a2.94 2.94 0 0 1 .708.692l-.364 1.252a1.96 1.96 0 0 0-.406-.655c-.144-.166-.311-.293-.502-.38a2.35 2.35 0 0 0-.617-.189c-.399-.069-.782.048-1.149.352-.355.296-.633.805-.834 1.528-.106.36-.163.713-.169 1.059.005.347.068.639.189.877.123.227.315.363.578.409.21.037.417.002.619-.103.204-.116.402-.287.593-.514s.366-.483.524-.77a7.6 7.6 0 0 0 .454-.928l.383-.988.426.074-.85 2.921a6.01 6.01 0 0 1-.687.774c-.247.238-.518.424-.812.557-.281.124-.569.161-.863.109z" class="B"/><path d="M262.135 367.547c.12-.13.254-.188.403-.173.16.017.323.105.49.264.166.17.388.322.668.457s.608.236.987.302c.84.146 1.535.105 2.084-.124a1.77 1.77 0 0 0 1.056-1.213c.134-.464.138-.858.011-1.184a1.66 1.66 0 0 0-.62-.822 3.94 3.94 0 0 0-1.078-.529 9.44 9.44 0 0 0-1.323-.328.49.49 0 0 1-.351-.223.56.56 0 0 1-.076-.403c.029-.168.105-.291.226-.367.124-.087.259-.117.406-.092.641.112 1.218.158 1.73.139.525-.028.961-.141 1.31-.34.361-.208.607-.533.738-.976.092-.341.082-.625-.031-.85-.11-.236-.294-.425-.55-.567a2.99 2.99 0 0 0-.937-.309 3.77 3.77 0 0 0-1.115-.032 4.23 4.23 0 0 0-.856.16c-.183.054-.364.066-.543.035-.168-.029-.283-.114-.345-.255a.48.48 0 0 1-.005-.439c.07-.151.193-.27.371-.358.238-.121.606-.214 1.104-.279.501-.075 1.04-.062 1.618.038s1.087.287 1.527.559a2.37 2.37 0 0 1 .952 1.059c.197.424.213.925.047 1.502a2.21 2.21 0 0 1-.642 1.074c-.298.284-.676.494-1.133.631-.444.128-.962.179-1.553.152l.094-.26c.616.194 1.115.47 1.496.829.392.36.651.768.778 1.223.137.457.134.939-.008 1.444-.268.917-.799 1.572-1.592 1.964s-1.79.485-2.988.276c-.546-.095-1.019-.242-1.417-.442-.386-.208-.674-.42-.864-.637-.142-.177-.222-.342-.238-.496-.006-.153.05-.289.169-.41zm11.514 3.581c-.799-.139-1.418-.469-1.858-.99-.429-.518-.685-1.164-.767-1.936s.004-1.607.258-2.505c.232-.837.508-1.584.829-2.243.332-.667.712-1.229 1.138-1.686.436-.454.921-.781 1.453-.981.544-.198 1.141-.24 1.793-.126.672.117 1.204.361 1.594.732a2.95 2.95 0 0 1 .834 1.363c.156.536.218 1.115.185 1.738-.031.612-.131 1.217-.3 1.815-.318 1.082-.729 2.012-1.233 2.79-.502.768-1.087 1.332-1.756 1.692-.659.362-1.382.474-2.17.337zm.261-1.124c.431.075.828.03 1.192-.134.366-.174.7-.441 1-.8a6.44 6.44 0 0 0 .809-1.288c.239-.5.441-1.039.607-1.616a8.62 8.62 0 0 0 .284-1.445c.052-.489.039-.941-.041-1.355-.068-.413-.225-.759-.468-1.04s-.597-.461-1.059-.541c-.41-.072-.784-.039-1.121.097s-.64.348-.907.638c-.265.278-.502.611-.71.997a9.81 9.81 0 0 0-.556 1.235l-.432 1.272c-.307 1.138-.326 2.055-.057 2.751s.755 1.106 1.459 1.229z" class="B"/><path d="M306.019 375.189c.12-.131.255-.188.404-.173.159.017.322.105.49.264.165.169.387.322.667.457a3.76 3.76 0 0 0 .987.302c.841.146 1.535.105 2.084-.125.551-.239.903-.644 1.056-1.212.135-.464.138-.859.011-1.184-.115-.334-.322-.608-.62-.823s-.657-.39-1.077-.528-.861-.248-1.324-.328c-.157-.028-.274-.102-.351-.224s-.101-.256-.076-.403a.51.51 0 0 1 .227-.366.52.52 0 0 1 .405-.092c.641.112 1.218.158 1.73.139.525-.028.961-.141 1.31-.341.361-.207.607-.533.738-.975.092-.342.082-.625-.03-.85-.111-.236-.294-.425-.551-.567a2.99 2.99 0 0 0-.937-.309 3.77 3.77 0 0 0-1.115-.032 4.31 4.31 0 0 0-.856.159c-.183.055-.364.067-.542.036a.43.43 0 0 1-.346-.255.48.48 0 0 1-.004-.44c.069-.15.193-.269.37-.357.238-.121.606-.214 1.105-.279.5-.075 1.039-.063 1.617.038a4.29 4.29 0 0 1 1.527.558 2.38 2.38 0 0 1 .952 1.059c.197.424.213.925.047 1.503a2.2 2.2 0 0 1-.641 1.074c-.299.283-.676.494-1.133.631-.445.128-.963.178-1.553.151l.094-.259c.615.193 1.114.47 1.496.829.391.36.651.768.777 1.223.137.457.135.938-.008 1.444-.268.917-.798 1.572-1.592 1.964s-1.79.484-2.988.276c-.546-.095-1.019-.243-1.417-.442-.386-.208-.674-.42-.863-.638-.143-.176-.222-.341-.239-.496-.006-.152.051-.289.169-.409zm8.837 3.098c-.189-.033-.331-.117-.427-.253-.083-.144-.094-.33-.032-.558l2.615-9.143c.056-.196.156-.335.3-.419s.306-.109.485-.078c.189.033.325.122.408.266.085.134.1.294.047.48l-2.629 9.221c-.058.207-.158.346-.301.419s-.298.094-.466.065z" class="B"/><path d="M351.949 384.745a.49.49 0 0 1-.309-.184c-.079-.111-.098-.249-.058-.416l2.72-9.465c.05-.165.129-.276.237-.333a.6.6 0 0 1 .366-.05c.115.02.213.081.293.181.082.09.098.212.05.366l-2.737 9.56c-.048.154-.125.255-.231.301a.56.56 0 0 1-.331.04z" class="C"/></g><defs><filter id="A" x=".945" y=".336" width="495.299" height="499.367" filterUnits="userSpaceOnUse" color-interpolation-filters="sRGB"><feFlood flood-opacity="0" result="A"/><feColorMatrix in="SourceAlpha" values="0 0 0 0 0 0 0 0 0 0 0 0 0 0 0 0 0 0 127 0" result="B"/><feOffset dx="12" dy="12"/><feComposite in2="B" operator="out"/><feColorMatrix values="0 0 0 0 0.254902 0 0 0 0 0.14902 0 0 0 0 0.0431373 0 0 0 0.1 0"/><feBlend in2="A" result="C"/><feColorMatrix in="SourceAlpha" values="0 0 0 0 0 0 0 0 0 0 0 0 0 0 0 0 0 0 127 0" result="B"/><feOffset/><feGaussianBlur stdDeviation="25"/><feComposite in2="B" operator="out"/><feColorMatrix values="0 0 0 0 0 0 0 0 0 0 0 0 0 0 0 0 0 0 0.2 0"/><feBlend in2="C"/><feBlend in="SourceGraphic"/></filter><clipPath id="B"><path fill="#fff" transform="matrix(.985177 .171541 -.171541 .985177 116.617 153.956)" d="M0 0h16v16H0z"/></clipPath><clipPath id="C"><path fill="#fff" transform="matrix(.985177 .171541 -.171541 .985177 389.511 201.473)" d="M0 0h16v16H0z"/></clipPath></defs></svg>