<svg fill="none" xmlns="http://www.w3.org/2000/svg" viewBox="0 0 187 36"><path d="M46 2h3l.1.1 3.6 9.7 3.6-9.7.1-.1h3l.1.1-5.3 13.8v.1h-2.9v-.1zm32.1-.3a7.3 7.3 0 1 1 0 14.6 7.3 7.3 0 1 1 0-14.6m0 2.9A4.3 4.3 0 0 0 73.8 9a4.3 4.3 0 1 0 8.6 0c0-2.5-1.9-4.4-4.3-4.4M98.6 2h2.6l.1.1v11.1h5.3l.1.1V16h-8l-.2-.1zm17.6 0h11l.1.1v2.7H123V16h-2.7V4.8h-4.2V2.1zm27.4 0h12.5v3.1h-12.5zm0 11.9h12.5V17h-12.5zm0-5.6h12.5v3.1h-12.5zm21.4-.2h3.8V17H165zm3.8 5.7h4.3V17h-4.3zM165 2h8.1v3.3H165z" fill="#E93359"/><path fill-rule="evenodd" clip-rule="evenodd" d="M173 17a7.7 7.7 0 0 0 7.6-7.5c0-4-3.4-7.3-7.6-7.5v3.4c2.2.1 3.8 2 3.8 4.2s-1.6 4-3.8 4.2z" fill="#E93359"/><path fill-rule="evenodd" clip-rule="evenodd" d="M173 17a7.7 7.7 0 0 0 7.6-7.5c0-4-3.4-7.3-7.6-7.5v3.4c2.2.1 3.8 2 3.8 4.2s-1.6 4-3.8 4.2z" fill="#E93359"/><path d="M44.5 22.7h1.2V29h3.6v1h-4.8zm9.8 7.4c-.5 0-1 0-1.3-.3a2 2 0 0 1-.8-.8 2.4 2.4 0 0 1 0-2.3l1-.8a2 2 0 0 1 1.1-.3c.6 0 1 .1 1.5.5.3.3.6.8.7 1.4l-3.4 1.2-.2-.7 2.6-1-.2.2c0-.2-.2-.4-.4-.5a1 1 0 0 0-.7-.2l-.6.1-.4.5-.2.7.2.7.5.5.6.1h.5l.5-.3.5.8-.7.4zm6.8 0c-.4 0-.8 0-1-.2-.4-.2-.7-.5-.8-.8-.2-.3-.3-.7-.3-1.2s0-.9.3-1.2c.2-.4.4-.7.7-.8.4-.2.7-.3 1.1-.3a1.8 1.8 0 0 1 1.6.8v.2-.8h1V30h-1v-1 .2l-.1.2-.3.3a2 2 0 0 1-.5.3zm.3-1h.6l.4-.3.2-.5v-1l-.2-.4-.5-.3a1.4 1.4 0 0 0-1.2 0l-.4.5-.2.7a1.3 1.3 0 0 0 1.3 1.4m6.6-3.3.1 1.2v-.2c0-.3.3-.5.5-.7l.6-.4.6-.1-.1 1.1c-.3 0-.6 0-.8.2a1 1 0 0 0-.6.5l-.2.8V30H67v-4.2zm5.6 0 .1.9v-.1c.1-.3.3-.6.6-.7a2 2 0 0 1 1-.3c.5 0 .8.1 1 .3.3.3.4.6.5 1v3h-1.2v-2.7l-.1-.6-.6-.2a1 1 0 0 0-.6.3c-.2 0-.3.3-.4.5a2 2 0 0 0-.2.8V30h-1.1v-4.2zm6.4 0h1V30h-1zm0-1.5.1-.5.5-.1.4.1c.2.1.2.3.2.5 0 .1 0 .3-.2.4l-.4.2-.5-.2a.5.5 0 0 1-.2-.4m5.4 1.5v.9-.1c.2-.3.4-.6.7-.7a2 2 0 0 1 1-.3c.4 0 .7.1 1 .3.3.3.4.6.4 1v3h-1.1v-2.7c0-.3 0-.4-.2-.6l-.5-.2a1 1 0 0 0-.6.3c-.2 0-.4.3-.5.5a2 2 0 0 0-.1.8V30h-1.1v-4.2zm8.5 6.3-1-.1-.6-.3-.5-.4.6-.8.6.4c.3.2.5.2.8.2l.7-.1c.3-.1.4-.2.5-.4l.2-.6v-1 .2c0 .2-.2.4-.5.6a2 2 0 0 1-1.2.3 2 2 0 0 1-1.8-1l-.3-1.2a2.3 2.3 0 0 1 1.1-2 2 2 0 0 1 1-.3c.5 0 .8 0 1 .2.4.1.6.3.7.5v.1-.6h1.1V30c0 .4 0 .8-.3 1a2 2 0 0 1-.9.8c-.3.2-.8.3-1.2.3m-1.4-4.3c0 .3 0 .5.2.7l.5.5.7.2.6-.1a1.3 1.3 0 0 0 .7-.8v-1l-.3-.4-.4-.3-.6-.1c-.3 0-.5 0-.7.2-.2 0-.4.2-.5.4zm16-3.6-.8-.3-.9-.2c-.3 0-.6 0-.8.3-.2.1-.3.3-.3.6 0 .2 0 .4.2.5.1.2.3.3.6.4a12.5 12.5 0 0 0 1.3.6l.6.4.4.6.2.9a2 2 0 0 1-1.1 1.8c-.4.2-.8.3-1.4.3a4 4 0 0 1-1.7-.4l-.7-.4.5-.9a3.4 3.4 0 0 0 1.9.7c.2 0 .4 0 .6-.2.2 0 .3-.1.5-.3l.2-.6c0-.2 0-.4-.2-.5l-.5-.4-.6-.3a14.6 14.6 0 0 1-1.3-.7 1.7 1.7 0 0 1-.7-1.4 1.9 1.9 0 0 1 1-1.7c.4-.2.7-.3 1.2-.3s1 0 1.3.2c.4 0 .7.2 1 .4zm4.9 6c-.4 0-.8-.1-1-.4-.3-.2-.4-.5-.4-.9v-3.1h1.1v2.7c0 .2 0 .4.2.5.1.2.3.2.5.2s.4 0 .6-.2c.2-.1.3-.3.4-.6l.1-.8v-1.8h1.2V30h-1l-.1-1v.2l-.4.5-.5.4a2 2 0 0 1-.7 0m8.5 0a2 2 0 0 1-.9-.3l-.6-.5V29v3h-1v-6.4h.9l.1 1v-.3c.1-.3.4-.4.7-.6l1-.2c.4 0 .7 0 1 .3.4.1.6.4.8.8.2.3.3.7.3 1.2l-.3 1.2a2 2 0 0 1-.8.7zm-.2-1a1.4 1.4 0 0 0 1.1-.6c.2-.2.2-.5.2-.7l-.1-.7-.5-.5-.7-.2-.6.1-.4.4-.3.4v.9c0 .2.2.3.3.5l.4.3zm7.4 1c-.5 0-1-.2-1.3-.4a2 2 0 0 1-.8-.8 2.4 2.4 0 0 1 0-2.3c.2-.3.5-.6.9-.8l1.2-.3c.6 0 1 .1 1.4.5.4.3.7.8.8 1.4l-3.4 1.2-.3-.7 2.7-1-.2.2-.4-.5a1 1 0 0 0-.7-.2l-.6.1-.4.5-.2.7c0 .3 0 .5.2.7 0 .2.2.4.4.5l.7.1h.5l.5-.3.5.8-.8.4zm6-4.4.1 1.2v-.2c0-.3.2-.5.5-.7l.6-.4.5-.1v1.1c-.3 0-.6 0-.8.2a1.5 1.5 0 0 0-.8 1.3V30H134v-4.2zm7.9 3.8-.7.4-.8.1c-.5 0-.9 0-1.2-.3-.4-.1-.7-.4-.9-.7-.2-.4-.2-.8-.2-1.2 0-.5 0-.9.3-1.2l.8-.8 1-.2 1 .1.7.4-.5.7a1.8 1.8 0 0 0-1-.3 1.2 1.2 0 0 0-1 .6c-.2.2-.2.4-.2.7a1.3 1.3 0 0 0 .6 1.1l.7.2h.5l.3-.3zm2.9.4v-7.8h1v4.5-.2c.2-.2.4-.5.7-.6.3-.2.6-.3 1-.3s.7.1 1 .3c.3.3.4.6.4 1V30h-1.1v-2.7c0-.3 0-.4-.2-.6l-.5-.2a1 1 0 0 0-.6.3c-.2 0-.4.3-.5.5a2 2 0 0 0-.1.8V30zm9.1.1c-.4 0-.7 0-1-.2-.4-.2-.6-.5-.8-.8-.2-.3-.3-.7-.3-1.2s0-.9.3-1.2c.2-.4.4-.7.8-.8.3-.2.6-.3 1-.3a1.8 1.8 0 0 1 1.6.8v.2-.8h1V30h-1v-1 .2a2.3 2.3 0 0 1-.4.5 2 2 0 0 1-1.2.4m.3-1h.6l.4-.3.3-.5v-1l-.3-.4-.4-.3a1.4 1.4 0 0 0-1.2 0l-.5.5-.2.7a1.3 1.3 0 0 0 1.3 1.4m6.6-3.3.1 1.2v-.2l.5-.7.6-.4.6-.1v1.1c-.4 0-.7 0-1 .2l-.5.5-.2.8V30h-1v-4.2zm6.5 6.3-.8-.1c-.3 0-.5-.2-.7-.3l-.5-.4.6-.8.6.4c.3.2.5.2.8.2l.7-.1.5-.4.2-.6v-1 .2c0 .2-.3.4-.6.6a2 2 0 0 1-1 .3 2 2 0 0 1-2-1l-.2-1.2a2.3 2.3 0 0 1 1-2l1.2-.3c.3 0 .7 0 1 .2.3.1.5.3.6.5v.1-.6h1.1V30c0 .4 0 .8-.3 1a2 2 0 0 1-.9.8c-.3.2-.8.3-1.3.3m-1.3-4.3c0 .3 0 .5.2.7l.5.5.7.2.5-.1a1.3 1.3 0 0 0 .8-.8v-1l-.3-.4-.5-.3-.5-.1c-.3 0-.5 0-.7.2-.2 0-.4.2-.5.4zm9 2.3c-.4 0-.9 0-1.2-.3a2 2 0 0 1-.8-.8 2.4 2.4 0 0 1 0-2.3c.2-.3.5-.6.9-.8l1.2-.3c.6 0 1 .1 1.4.5.4.3.7.8.8 1.4l-3.4 1.2-.3-.7 2.7-1-.3.2c0-.2-.1-.4-.3-.5a1 1 0 0 0-.7-.2l-.6.1-.4.5-.2.7c0 .3 0 .5.2.7 0 .2.2.4.4.5l.7.1h.5l.4-.3.6.8-.8.4zm6.8 0a2 2 0 0 1-1.8-1c-.2-.4-.3-.8-.3-1.3s.1-.9.3-1.2c.2-.3.5-.6.8-.7a2.4 2.4 0 0 1 2-.1c.3 0 .5.2.7.5v.3-4.4h1.1V30h-1.1v-1 .3l-.7.6zm.4-1h.6l.4-.4.3-.4v-1l-.3-.4-.4-.3-.6-.1-.7.1a1.3 1.3 0 0 0-.6 1.2 1.3 1.3 0 0 0 1.3 1.4" fill="#E93359"/><g filter="url(#a)"><rect x=".2" width="36.8" height="33" rx="5" fill="#E93359"/><path d="M6.3 8h2.9v.1l3.5 10.5L16.1 8l.1-.1h2.9V8l-5 14.9h-2.9zm25.5 0h-9.4v3h9.4zm0 11.8h-9.4v3h9.4zm0-5.6h-9.4v3h9.4z" fill="#fff"/></g><defs><filter id="a" x=".2" y="0" width="36.8" height="36" filterUnits="userSpaceOnUse" color-interpolation-filters="sRGB"><feFlood flood-opacity="0" result="BackgroundImageFix"/><feColorMatrix in="SourceAlpha" values="0 0 0 0 0 0 0 0 0 0 0 0 0 0 0 0 0 0 127 0" result="hardAlpha"/><feOffset dy="3"/><feComposite in2="hardAlpha" operator="out"/><feColorMatrix values="0 0 0 0 0.694118 0 0 0 0 0.145098 0 0 0 0 0.262745 0 0 0 1 0"/><feBlend in2="BackgroundImageFix" result="effect1_dropShadow_102_62"/><feBlend in="SourceGraphic" in2="effect1_dropShadow_102_62" result="shape"/></filter></defs></svg>