<svg xmlns="http://www.w3.org/2000/svg" width="20" height="21" fill="none" xmlns:v="https://vecta.io/nano"><path fill-rule="evenodd" d="M3.1.9A2.7 2.7 0 0 0 .4 3.6v13.8a2.7 2.7 0 0 0 2.7 2.7h13.8a2.7 2.7 0 0 0 2.7-2.7V3.6A2.7 2.7 0 0 0 16.9.9H3.1zm4.836 7.536a.9.9 0 1 0-1.273-1.273l-2.7 2.7a.9.9 0 0 0 0 1.273l2.7 2.7a.9.9 0 1 0 1.273-1.273L5.873 10.5l2.064-2.064zm5.4-1.273a.9.9 0 1 0-1.273 1.273l2.064 2.064-2.064 2.064a.9.9 0 1 0 1.273 1.273l2.7-2.7a.9.9 0 0 0 0-1.273l-2.7-2.7z" fill="#e7c009"/></svg>