<svg xmlns="http://www.w3.org/2000/svg" width="24" height="25" fill="none" xmlns:v="https://vecta.io/nano"><path d="M24 9.5a5 5 0 0 1-.845 2.016l-8.783 11.82a3 3 0 0 1-2.354 1.164 3 3 0 0 1-2.368-1.135L.824 11.3c-.375-.543-.64-1.155-.779-1.8h6.268l4.753 12.359a1 1 0 0 0 .934.643 1 1 0 0 0 .934-.643L17.687 9.5H24zm-6.3-2h6.257c-.152-.677-.444-1.314-.857-1.871l-2.558-3.454c-.37-.518-.859-.94-1.425-1.231S17.924.5 17.287.5h-2.2l2.613 7zm-6.592-7l-2.659 7h7.112l-2.606-7h-1.847zm-4.798 7l2.658-7H6.646a3.99 3.99 0 0 0-3.235 1.649L.938 5.391A4.99 4.99 0 0 0 0 7.5h6.31zm9.234 2H8.456L12 18.714 15.544 9.5z" fill="#05bf8e"/></svg>