<svg xmlns="http://www.w3.org/2000/svg" width="24" height="23" fill="none" xmlns:v="https://vecta.io/nano"><path d="M24 7.98V19.5a1 1 0 0 1-1 1 1 1 0 0 1-1-1v-8.248l-7.4 3.536a5 5 0 0 1-2.577.694 5.27 5.27 0 0 1-2.7-.739l-7.38-3.513A3.69 3.69 0 0 1 0 8.027a3.69 3.69 0 0 1 1.859-3.252l.084-.045L9.4 1.172C10.205.71 11.119.47 12.047.478s1.838.263 2.635.739l7.375 3.513c.582.322 1.068.792 1.41 1.363s.525 1.222.534 1.887zm-11.978 9.5a7.26 7.26 0 0 1-3.645-.972L4 14.419v2.7c.001 1.067.342 2.107.975 2.966S6.5 21.58 7.519 21.897A15.56 15.56 0 0 0 12 22.5c1.515.017 3.025-.187 4.481-.607 1.019-.317 1.911-.952 2.544-1.812s.975-1.899.975-2.966v-2.691l-4.459 2.13c-1.07.615-2.285.935-3.519.928v-.002z" fill="#ef476f"/></svg>